#N canvas 193 64 831 285 10;
#X msg 204 228 /y \$1;
#X floatatom 130 123 5 0 0 0 - - -, f 5;
#X floatatom 65 124 5 0 0 0 - - -, f 5;
#X obj 44 159 hsl 128 15 0 127 0 0 empty empty empty -2 -8 0 10 -262144
-1 -1 12200 1;
#X floatatom 278 115 5 0 0 0 - - -, f 5;
#X floatatom 213 116 5 0 0 0 - - -, f 5;
#X obj 192 151 hsl 128 15 0 127 0 0 empty empty empty -2 -8 0 10 -262144
-1 -1 4100 1;
#X obj 203 192 / 127;
#X obj 78 82 ctlin 113;
#X obj 226 74 ctlin 114;
#X obj 68 197 / 127;
#X msg 69 233 /x \$1;
#X floatatom 419 113 5 0 0 0 - - -, f 5;
#X floatatom 354 114 5 0 0 0 - - -, f 5;
#X obj 333 149 hsl 128 15 0 127 0 0 empty empty empty -2 -8 0 10 -262144
-1 -1 1600 1;
#X obj 344 190 / 127;
#X obj 367 72 ctlin 115;
#X msg 345 226 /z \$1;
#X text 85 7 use XYZ pad program;
#X obj 204 269 outlet;
#X connect 0 0 19 0;
#X connect 2 0 3 0;
#X connect 2 0 10 0;
#X connect 5 0 7 0;
#X connect 5 0 6 0;
#X connect 7 0 0 0;
#X connect 8 0 2 0;
#X connect 8 1 1 0;
#X connect 9 0 5 0;
#X connect 9 1 4 0;
#X connect 10 0 11 0;
#X connect 11 0 19 0;
#X connect 13 0 15 0;
#X connect 13 0 14 0;
#X connect 15 0 17 0;
#X connect 16 0 13 0;
#X connect 16 1 12 0;
#X connect 17 0 19 0;
