#N canvas 535 85 577 815 10;
#X declare -path metaPdLibs/control;
#X declare -path metaPdLibs/fx;
#X declare -path metaPdLibs/instrument;
#X declare -path metaPdLibs/scales;
#X declare -path metaPdLibs;
#X declare -path rj;
#X obj 168 49 list trim;
#X obj 168 90 t a a;
#X obj 168 27 r \$0-input;
#N canvas 668 57 450 300 includes 0;
#X obj 34 16 declare -path metaPdLibs/control;
#X obj 36 36 declare -path metaPdLibs/fx;
#X obj 34 57 declare -path metaPdLibs/instrument;
#X obj 33 79 declare -path metaPdLibs/scales;
#X obj 34 104 declare -path metaPdLibs;
#X obj 39 131 declare -path rj;
#X restore 24 13 pd includes;
#X obj 140 731 output_stage \$0;
#X obj 38 671 vu 15 120 empty empty -1 -8 0 10 -66577 -1 1 0;
#X obj 83 730 - 100;
#X obj 83 708 env~;
#X obj 15 39 block-tester \$0;
#X obj 90 135 touch_to_notes 60 25;
#X obj 305 120 route /x /y /z /m;
#X floatatom 307 171 5 0 0 0 - - -, f 5;
#X floatatom 126 172 5 0 0 0 - - -, f 5;
#X floatatom 62 179 5 0 0 0 - - -, f 5;
#X obj 155 468 microjam_chirp_chain;
#X connect 0 0 1 0;
#X connect 1 0 9 0;
#X connect 1 0 10 0;
#X connect 2 0 0 0;
#X connect 4 0 7 0;
#X connect 6 0 5 0;
#X connect 7 0 6 0;
#X connect 9 0 13 0;
#X connect 9 0 14 0;
#X connect 9 1 12 0;
#X connect 9 1 14 1;
#X connect 9 2 11 0;
#X connect 9 2 14 2;
#X connect 9 3 14 3;
#X connect 10 1 14 4;
#X connect 14 0 4 0;
#X connect 14 1 4 1;
