#N canvas 534 50 546 681 10;
#X declare -path metaPdLibs;
#X declare -path metaPdLibs/control;
#X declare -path metaPdLibs/fx;
#X declare -path metaPdLibs/instrument;
#X declare -path metaPdLibs/scales;
#X obj 144 657 dac~;
#X obj 118 131 list trim;
#X obj 118 193 route /x /y /z;
#X obj 146 429 osc~;
#X obj 9 9 declare -path metaPdLibs;
#X obj 74 332 + 85;
#X obj 74 307 * 2500;
#X obj 146 451 *~;
#X obj 198 427 line~;
#X obj 211 344 t b b;
#X msg 195 395 0 200;
#X obj 204 369 delay 50;
#X obj 66 384 line~;
#X msg 72 355 \$1 2;
#N canvas 1094 52 889 476 crystal 1;
#X obj 80 16 loadbang;
#X obj 33 16 inlet~;
#X obj 36 327 outlet~;
#X obj 279 30 inlet;
#X obj 312 116 line~;
#X obj 279 52 t b f;
#X msg 279 94 0 500;
#X obj 336 73 list append 50;
#X obj 279 74 delay 50;
#X obj 34 42 *~;
#X obj 430 29 vsl 15 128 0 1 0 0 empty empty empty 0 -9 0 10 -262144
-1 -1 0 1;
#X obj 36 298 *~ 0.5;
#X obj 60 115 pitchshift~;
#X obj 35 232 rlop~ 4720 1;
#X text 277 5 control inlet!;
#X obj 93 146 loadbang;
#X obj 35 65 *~ 0.8;
#X obj 491 157 vline~;
#X obj 509 179 noise~;
#X obj 490 201 *~;
#X obj 491 94 bng 24 250 50 0 empty empty empty 17 7 0 10 -4034 -1
-1;
#X msg 491 121 0.8 10 \, 0 20 10;
#X obj 522 31 inlet;
#X obj 523 53 list append 50;
#X obj 54 264 rev2~ 100 80 14400 60;
#X obj 81 92 f -12;
#X msg 93 169 300;
#X obj 59 192 feedbackdelay 300;
#X msg 126 169 0.1;
#X connect 0 0 25 0;
#X connect 1 0 9 0;
#X connect 3 0 5 0;
#X connect 4 0 9 1;
#X connect 5 0 8 0;
#X connect 5 1 7 0;
#X connect 6 0 4 0;
#X connect 7 0 4 0;
#X connect 8 0 6 0;
#X connect 9 0 16 0;
#X connect 10 0 7 0;
#X connect 11 0 2 0;
#X connect 12 0 27 0;
#X connect 13 0 11 0;
#X connect 13 0 24 0;
#X connect 15 0 26 0;
#X connect 15 0 28 0;
#X connect 16 0 13 0;
#X connect 16 0 12 0;
#X connect 17 0 19 0;
#X connect 18 0 19 1;
#X connect 19 0 16 0;
#X connect 20 0 21 0;
#X connect 21 0 17 0;
#X connect 22 0 23 0;
#X connect 23 0 4 0;
#X connect 24 0 11 0;
#X connect 25 0 12 1;
#X connect 26 0 27 1;
#X connect 27 0 13 0;
#X connect 28 0 27 2;
#X restore 229 553 pd crystal;
#X obj 314 490 vsl 15 128 0 1 0 0 empty empty empty 0 -9 0 10 -262144
-1 -1 8890 1;
#X obj 337 489 loadbang;
#X obj 118 172 t a a;
#X msg 339 512 0.7;
#X obj 74 281 t f;
#X obj 118 109 r \$0-input;
#X obj 42 440 osc~;
#X obj 41 418 *~ 0.5;
#X obj 42 462 *~;
#X msg 126 351 \$1 2;
#X obj 125 377 line~;
#X obj 43 485 *~;
#X floatatom 344 382 5 0 0 0 - - -, f 5;
#X obj 160 523 *~ 0.4;
#X obj 131 266 moses 0;
#X obj 134 240 - 0.5;
#X obj 125 286 * 0;
#X floatatom 166 303 5 0 0 0 - - -, f 5;
#X obj 127 320 * 0.9;
#X msg 238 396 1 25;
#X obj 15 112 block-tester;
#N canvas 0 255 450 300 autotest 0;
#X msg 49 142 /x \$1;
#X obj 49 98 random 1000;
#X obj 49 119 / 1000;
#X obj 146 109 bng 15 250 50 0 empty empty empty 17 7 0 10 -262144
-1 -1;
#X obj 48 73 metro 2000;
#X obj 177 108 random 1000;
#X obj 177 129 / 1000;
#X msg 177 152 /y \$1;
#X obj 49 168 s \$0-input;
#X floatatom 57 191 5 0 0 0 - - -, f 5;
#X floatatom 170 190 5 0 0 0 - - -, f 5;
#X obj 265 102 random 1000;
#X obj 265 123 / 1000;
#X floatatom 258 184 5 0 0 0 - - -, f 5;
#X msg 264 146 /z \$1;
#X obj 87 43 inlet;
#X connect 0 0 8 0;
#X connect 1 0 2 0;
#X connect 2 0 0 0;
#X connect 2 0 9 0;
#X connect 3 0 1 0;
#X connect 4 0 1 0;
#X connect 4 0 5 0;
#X connect 4 0 11 0;
#X connect 5 0 6 0;
#X connect 6 0 7 0;
#X connect 6 0 10 0;
#X connect 7 0 8 0;
#X connect 11 0 12 0;
#X connect 12 0 14 0;
#X connect 12 0 13 0;
#X connect 14 0 8 0;
#X connect 15 0 4 0;
#X restore 355 201 pd autotest;
#X obj 359 167 tgl 15 0 empty empty empty 17 7 0 10 -262144 -1 -1 0
1;
#N canvas 2998 1261 350 392 manual-test 0;
#X obj 31 121 hsl 128 15 0 1 0 0 empty empty empty -2 -8 0 10 -262144
-1 -1 0 1;
#X obj 155 -28 vsl 15 128 1 0 0 0 empty empty empty 0 -9 0 10 -262144
-1 -1 0 1;
#X obj 106 164 f;
#X obj 145 164 f;
#X obj 67 30 bng 15 250 50 0 empty empty empty 17 7 0 10 -262144 -1
-1;
#X obj 73 62 t b b;
#X msg 36 209 /x \$1;
#X msg 164 219 /y \$1;
#X obj 36 235 s \$0-input;
#X floatatom 44 258 5 0 0 0 - - -, f 5;
#X floatatom 157 257 5 0 0 0 - - -, f 5;
#X connect 0 0 2 1;
#X connect 1 0 3 1;
#X connect 2 0 9 0;
#X connect 2 0 6 0;
#X connect 3 0 10 0;
#X connect 3 0 7 0;
#X connect 4 0 5 0;
#X connect 5 0 2 0;
#X connect 5 1 3 0;
#X connect 6 0 8 0;
#X connect 7 0 8 0;
#X restore 356 226 pd manual-test;
#X obj 287 16 declare -path metaPdLibs/control;
#X obj 289 36 declare -path metaPdLibs/fx;
#X obj 287 57 declare -path metaPdLibs/instrument;
#X obj 286 79 declare -path metaPdLibs/scales;
#X obj 294 327 * -0.3;
#X obj 294 349 + 0.3;
#X connect 1 0 17 0;
#X connect 2 0 19 0;
#X connect 2 1 30 0;
#X connect 2 1 43 0;
#X connect 3 0 7 0;
#X connect 5 0 13 0;
#X connect 6 0 5 0;
#X connect 7 0 28 0;
#X connect 8 0 7 1;
#X connect 8 0 23 1;
#X connect 9 0 11 0;
#X connect 9 1 34 0;
#X connect 10 0 8 0;
#X connect 11 0 10 0;
#X connect 12 0 3 0;
#X connect 12 0 22 0;
#X connect 13 0 12 0;
#X connect 14 0 0 0;
#X connect 14 0 0 1;
#X connect 15 0 14 2;
#X connect 16 0 18 0;
#X connect 17 0 2 0;
#X connect 17 1 9 0;
#X connect 18 0 15 0;
#X connect 19 0 6 0;
#X connect 20 0 1 0;
#X connect 21 0 23 0;
#X connect 22 0 21 0;
#X connect 23 0 26 0;
#X connect 24 0 25 0;
#X connect 25 0 26 1;
#X connect 26 0 28 0;
#X connect 28 0 0 0;
#X connect 28 0 0 1;
#X connect 28 0 14 0;
#X connect 29 0 31 0;
#X connect 29 1 33 0;
#X connect 30 0 29 0;
#X connect 31 0 33 0;
#X connect 33 0 24 0;
#X connect 33 0 32 0;
#X connect 34 0 8 0;
#X connect 35 0 17 0;
#X connect 37 0 36 0;
#X connect 43 0 44 0;
#X connect 44 0 14 1;
#X connect 44 0 27 0;
