#N canvas 534 50 546 681 10;
#X declare -path metaPdLibs/control;
#X declare -path metaPdLibs/fx;
#X declare -path metaPdLibs/instrument;
#X declare -path metaPdLibs/scales;
#X declare -path metaPdLibs;
#X declare -path rj;
#X obj 118 131 list trim;
#X obj 118 193 route /x /y /z;
#X obj 146 429 osc~;
#X obj 74 332 + 85;
#X obj 74 307 * 2500;
#X obj 146 451 *~;
#X obj 198 427 line~;
#X obj 211 344 t b b;
#X msg 195 395 0 200;
#X obj 204 369 delay 50;
#X obj 66 384 line~;
#X msg 72 355 \$1 2;
#N canvas 1094 52 889 476 crystal 0;
#X obj 80 16 loadbang;
#X obj 33 16 inlet~;
#X obj 36 327 outlet~;
#X obj 279 30 inlet;
#X obj 312 116 line~;
#X obj 279 52 t b f;
#X msg 279 94 0 500;
#X obj 336 73 list append 50;
#X obj 279 74 delay 50;
#X obj 34 42 *~;
#X obj 430 29 vsl 15 128 0 1 0 0 empty empty empty 0 -9 0 10 -262144
-1 -1 0 1;
#X obj 36 298 *~ 0.5;
#X obj 60 115 pitchshift~;
#X obj 35 232 rlop~ 4720 1;
#X text 277 5 control inlet!;
#X obj 93 146 loadbang;
#X obj 35 65 *~ 0.8;
#X obj 491 157 vline~;
#X obj 509 179 noise~;
#X obj 490 201 *~;
#X obj 491 94 bng 24 250 50 0 empty empty empty 17 7 0 10 -4034 -1
-1;
#X msg 491 121 0.8 10 \, 0 20 10;
#X obj 522 31 inlet;
#X obj 523 53 list append 50;
#X obj 54 264 rev2~ 100 80 14400 60;
#X obj 81 92 f -12;
#X msg 93 169 300;
#X obj 59 192 feedbackdelay 300;
#X msg 126 169 0.1;
#X connect 0 0 25 0;
#X connect 1 0 9 0;
#X connect 3 0 5 0;
#X connect 4 0 9 1;
#X connect 5 0 8 0;
#X connect 5 1 7 0;
#X connect 6 0 4 0;
#X connect 7 0 4 0;
#X connect 8 0 6 0;
#X connect 9 0 16 0;
#X connect 10 0 7 0;
#X connect 11 0 2 0;
#X connect 12 0 27 0;
#X connect 13 0 11 0;
#X connect 13 0 24 0;
#X connect 15 0 26 0;
#X connect 15 0 28 0;
#X connect 16 0 13 0;
#X connect 16 0 12 0;
#X connect 17 0 19 0;
#X connect 18 0 19 1;
#X connect 19 0 16 0;
#X connect 20 0 21 0;
#X connect 21 0 17 0;
#X connect 22 0 23 0;
#X connect 23 0 4 0;
#X connect 24 0 11 0;
#X connect 25 0 12 1;
#X connect 26 0 27 1;
#X connect 27 0 13 0;
#X connect 28 0 27 2;
#X restore 229 553 pd crystal;
#X obj 314 490 vsl 15 128 0 1 0 0 empty empty empty 0 -9 0 10 -262144
-1 -1 8890 1;
#X obj 337 489 loadbang;
#X obj 118 172 t a a;
#X msg 339 512 0.7;
#X obj 74 281 t f;
#X obj 118 109 r \$0-input;
#X obj 42 440 osc~;
#X obj 41 418 *~ 0.5;
#X obj 42 462 *~;
#X msg 126 351 \$1 2;
#X obj 125 377 line~;
#X obj 43 485 *~;
#X floatatom 344 382 5 0 0 0 - - -, f 5;
#X obj 131 266 moses 0;
#X obj 134 240 - 0.5;
#X obj 125 286 * 0;
#X floatatom 166 303 5 0 0 0 - - -, f 5;
#X obj 127 320 * 0.9;
#X msg 238 396 1 25;
#X obj 294 327 * -0.3;
#X obj 294 349 + 0.3;
#N canvas 668 57 450 300 includes 0;
#X obj 34 16 declare -path metaPdLibs/control;
#X obj 36 36 declare -path metaPdLibs/fx;
#X obj 34 57 declare -path metaPdLibs/instrument;
#X obj 33 79 declare -path metaPdLibs/scales;
#X obj 34 104 declare -path metaPdLibs;
#X obj 39 131 declare -path rj;
#X restore 24 13 pd includes;
#X obj 15 39 block-tester \$0;
#X obj 159 602 output_stage;
#X obj 57 542 vu 15 120 empty empty -1 -8 0 10 -66577 -1 1 0;
#X obj 102 601 - 100;
#X obj 102 579 env~;
#X obj 160 523 *~ 0.3;
#X connect 0 0 15 0;
#X connect 1 0 17 0;
#X connect 1 1 27 0;
#X connect 1 1 32 0;
#X connect 2 0 5 0;
#X connect 3 0 11 0;
#X connect 4 0 3 0;
#X connect 5 0 40 0;
#X connect 6 0 5 1;
#X connect 6 0 21 1;
#X connect 7 0 9 0;
#X connect 7 1 31 0;
#X connect 8 0 6 0;
#X connect 9 0 8 0;
#X connect 10 0 2 0;
#X connect 10 0 20 0;
#X connect 11 0 10 0;
#X connect 12 0 36 0;
#X connect 12 0 36 1;
#X connect 13 0 12 2;
#X connect 14 0 16 0;
#X connect 15 0 1 0;
#X connect 15 1 7 0;
#X connect 16 0 13 0;
#X connect 17 0 4 0;
#X connect 18 0 0 0;
#X connect 19 0 21 0;
#X connect 20 0 19 0;
#X connect 21 0 24 0;
#X connect 22 0 23 0;
#X connect 23 0 24 1;
#X connect 24 0 40 0;
#X connect 26 0 28 0;
#X connect 26 1 30 0;
#X connect 27 0 26 0;
#X connect 28 0 30 0;
#X connect 30 0 22 0;
#X connect 30 0 29 0;
#X connect 31 0 6 0;
#X connect 32 0 33 0;
#X connect 33 0 12 1;
#X connect 33 0 25 0;
#X connect 36 0 39 0;
#X connect 38 0 37 0;
#X connect 39 0 38 0;
#X connect 40 0 12 0;
#X connect 40 0 36 0;
#X connect 40 0 36 1;
