#N canvas 55 63 1166 705 10;
#X declare -path metaPdLibs/control;
#X declare -path metaPdLibs/fx;
#X declare -path metaPdLibs/instrument;
#X declare -path metaPdLibs/scales;
#X declare -path metaPdLibs;
#X declare -path rj;
#X obj 27 65 r \$0-input;
#X obj 27 87 list trim;
#N canvas 634 202 889 476 crystal 1;
#X obj 80 16 loadbang;
#X obj 33 16 inlet~;
#X obj 36 327 outlet~;
#X obj 279 30 inlet;
#X obj 312 116 line~;
#X obj 279 52 t b f;
#X msg 279 94 0 500;
#X obj 336 73 list append 50;
#X obj 279 74 delay 50;
#X obj 34 42 *~;
#X obj 430 29 vsl 15 128 0 1 0 0 empty empty empty 0 -9 0 10 -262144
-1 -1 0 1;
#X obj 81 92 f 12;
#X obj 36 298 *~ 0.5;
#X obj 60 115 pitchshift~;
#X obj 35 232 rlop~ 4720 1;
#X text 277 5 control inlet!;
#X obj 93 146 loadbang;
#X obj 54 264 rev2~ 100 95 14400 60;
#X obj 35 65 *~ 0.8;
#X obj 491 157 vline~;
#X obj 509 179 noise~;
#X obj 490 201 *~;
#X obj 491 94 bng 24 250 50 0 empty empty empty 17 7 0 10 -4034 -1
-1;
#X msg 491 121 0.8 10 \, 0 20 10;
#X msg 93 169 500;
#X msg 126 169 0.3;
#X obj 60 191 feedbackdelay 500;
#X obj 522 31 inlet;
#X obj 523 53 list append 50;
#X connect 0 0 11 0;
#X connect 1 0 9 0;
#X connect 3 0 5 0;
#X connect 4 0 9 1;
#X connect 5 0 8 0;
#X connect 5 1 7 0;
#X connect 6 0 4 0;
#X connect 7 0 4 0;
#X connect 8 0 6 0;
#X connect 9 0 18 0;
#X connect 10 0 7 0;
#X connect 11 0 13 1;
#X connect 12 0 2 0;
#X connect 13 0 26 0;
#X connect 14 0 12 0;
#X connect 14 0 17 0;
#X connect 16 0 24 0;
#X connect 16 0 25 0;
#X connect 17 0 12 0;
#X connect 18 0 13 0;
#X connect 18 0 14 0;
#X connect 19 0 21 0;
#X connect 20 0 21 1;
#X connect 21 0 18 0;
#X connect 22 0 23 0;
#X connect 23 0 19 0;
#X connect 24 0 26 1;
#X connect 25 0 26 2;
#X connect 26 0 14 0;
#X connect 27 0 28 0;
#X connect 28 0 4 0;
#X restore 143 598 pd crystal;
#X obj 228 535 vsl 15 128 0 1 0 0 empty empty empty 0 -9 0 10 -262144
-1 -1 1905 1;
#X obj 251 534 loadbang;
#X obj 79 538 s_drumelectro;
#X obj 72 504 r \$0-drums;
#X obj 74 568 *~ 0.28;
#N canvas 668 57 450 300 includes 0;
#X obj 34 16 declare -path metaPdLibs/control;
#X obj 36 36 declare -path metaPdLibs/fx;
#X obj 34 57 declare -path metaPdLibs/instrument;
#X obj 33 79 declare -path metaPdLibs/scales;
#X obj 34 104 declare -path metaPdLibs;
#X obj 39 131 declare -path rj;
#X restore 24 14 pd includes;
#X obj 274 24 tgl 15 0 empty empty empty 17 7 0 10 -262144 -1 -1 0
1;
#X obj 297 24 touch_tester_auto \$0;
#X obj 300 50 block-tester \$0;
#X obj 712 487 vu 15 120 empty empty -1 -8 0 10 -66577 -1 1 0;
#X obj 661 550 - 100;
#X obj 661 528 env~;
#X obj 88 647 output_stage;
#X obj 364 154 r \$0-input;
#X obj 371 187 list trim;
#N canvas 395 331 852 350 drumsynth 0;
#X obj 35 15 inlet notes;
#X obj 126 13 inlet bend;
#X obj 215 12 inlet dy;
#X obj 287 16 inlet press;
#X msg 96 115 hh;
#X msg 128 114 oh;
#X msg 169 114 cp;
#X obj 57 54 unpack 0 0;
#X obj 230 87 sel 0;
#X obj 243 116 t b a;
#X obj 354 271 s \$0-drums;
#X msg 67 114 sn;
#X obj 254 202 list prepend;
#X obj 85 308 s \$0-type;
#X msg 20 119 bd;
#X obj 312 129 r \$0-type;
#X obj 244 141 random 100;
#X obj 243 176 + 50;
#X obj 37 83 route 36 38 42 46 39;
#X obj 162 44 t a a;
#X obj 238 57 unpack 0 0;
#X obj 306 103 r \$0-rrange;
#X obj 285 172 r \$0-roffset;
#N canvas 0 22 450 300 settings 0;
#X obj 215 167 s \$0-rrange;
#X obj 100 170 s \$0-roffset;
#X obj 178 66 t b b;
#X obj 182 33 inlet;
#X obj 244 38 bng 15 250 50 0 empty empty empty 17 7 0 10 -262144 -1
-1;
#X msg 109 132 1000;
#X msg 225 127 2000;
#X connect 2 0 5 0;
#X connect 2 1 6 0;
#X connect 3 0 2 0;
#X connect 4 0 2 0;
#X connect 5 0 1 0;
#X connect 6 0 0 0;
#X restore 128 143 pd settings;
#N canvas 0 22 450 300 settings 0;
#X obj 215 167 s \$0-rrange;
#X obj 100 170 s \$0-roffset;
#X obj 178 66 t b b;
#X obj 182 33 inlet;
#X obj 244 38 bng 15 250 50 0 empty empty empty 17 7 0 10 -262144 -1
-1;
#X msg 225 127 20;
#X msg 109 132 80;
#X connect 2 0 6 0;
#X connect 2 1 5 0;
#X connect 3 0 2 0;
#X connect 4 0 2 0;
#X connect 5 0 0 0;
#X connect 6 0 1 0;
#X restore 149 170 pd settings;
#N canvas 0 22 450 300 settings 0;
#X obj 215 167 s \$0-rrange;
#X obj 100 170 s \$0-roffset;
#X obj 178 66 t b b;
#X obj 182 33 inlet;
#X obj 244 38 bng 15 250 50 0 empty empty empty 17 7 0 10 -262144 -1
-1;
#X msg 225 127 100;
#X msg 109 132 50;
#X connect 2 0 6 0;
#X connect 2 1 5 0;
#X connect 3 0 2 0;
#X connect 4 0 2 0;
#X connect 5 0 0 0;
#X connect 6 0 1 0;
#X restore 67 184 pd settings;
#N canvas 0 22 450 300 settings 0;
#X obj 215 167 s \$0-rrange;
#X obj 100 170 s \$0-roffset;
#X obj 178 66 t b b;
#X obj 182 33 inlet;
#X obj 244 38 bng 15 250 50 0 empty empty empty 17 7 0 10 -262144 -1
-1;
#X msg 109 132 100;
#X msg 225 127 200;
#X connect 2 0 5 0;
#X connect 2 1 6 0;
#X connect 3 0 2 0;
#X connect 4 0 2 0;
#X connect 5 0 1 0;
#X connect 6 0 0 0;
#X restore 62 210 pd settings;
#N canvas 0 22 450 300 settings 0;
#X obj 215 167 s \$0-rrange;
#X obj 100 170 s \$0-roffset;
#X obj 178 66 t b b;
#X obj 182 33 inlet;
#X obj 244 38 bng 15 250 50 0 empty empty empty 17 7 0 10 -262144 -1
-1;
#X msg 109 132 1000;
#X msg 225 127 2000;
#X connect 2 0 5 0;
#X connect 2 1 6 0;
#X connect 3 0 2 0;
#X connect 4 0 2 0;
#X connect 5 0 1 0;
#X connect 6 0 0 0;
#X restore 22 230 pd settings;
#X obj 532 101 bng 15 250 50 0 empty empty empty 17 7 0 10 -262144
-1 -1;
#X obj 514 74 t b;
#X obj 577 67 metro;
#X obj 658 60 abs;
#X obj 622 182 t b a;
#X msg 623 212 1;
#X msg 568 25 0;
#X msg 484 94 100;
#X floatatom 687 186 5 0 0 0 - - -, f 5;
#X obj 436 23 sel 0;
#X obj 662 147 /;
#X obj 654 86 t b a;
#X msg 633 119 1000;
#X connect 0 0 19 0;
#X connect 1 0 37 0;
#X connect 4 0 13 0;
#X connect 4 0 25 0;
#X connect 5 0 13 0;
#X connect 5 0 23 0;
#X connect 6 0 13 0;
#X connect 6 0 24 0;
#X connect 7 0 18 0;
#X connect 8 0 34 0;
#X connect 8 1 9 0;
#X connect 9 0 16 0;
#X connect 11 0 13 0;
#X connect 11 0 26 0;
#X connect 12 0 10 0;
#X connect 14 0 13 0;
#X connect 14 0 27 0;
#X connect 15 0 12 1;
#X connect 16 0 17 0;
#X connect 17 0 12 0;
#X connect 18 0 14 0;
#X connect 18 1 11 0;
#X connect 18 2 4 0;
#X connect 18 3 5 0;
#X connect 18 4 6 0;
#X connect 19 0 20 0;
#X connect 19 1 7 0;
#X connect 20 1 8 0;
#X connect 21 0 16 1;
#X connect 22 0 17 1;
#X connect 29 0 28 0;
#X connect 29 0 35 0;
#X connect 31 0 39 0;
#X connect 32 0 33 0;
#X connect 32 1 30 1;
#X connect 33 0 30 0;
#X connect 34 0 30 0;
#X connect 35 0 8 0;
#X connect 37 1 31 0;
#X connect 38 0 32 0;
#X connect 38 0 36 0;
#X connect 39 0 40 0;
#X connect 39 1 38 1;
#X connect 40 0 38 0;
#X restore 401 283 pd drumsynth;
#X obj 384 211 touch_to_drum 24 5;
#X msg 253 557 0;
#X connect 0 0 1 0;
#X connect 2 0 15 0;
#X connect 2 0 15 1;
#X connect 3 0 2 2;
#X connect 4 0 20 0;
#X connect 5 0 7 0;
#X connect 6 0 5 0;
#X connect 7 0 2 0;
#X connect 7 0 15 0;
#X connect 7 0 15 1;
#X connect 9 0 10 0;
#X connect 13 0 12 0;
#X connect 14 0 13 0;
#X connect 15 0 14 0;
#X connect 16 0 17 0;
#X connect 17 0 19 0;
#X connect 19 0 18 0;
#X connect 19 1 18 1;
#X connect 19 2 18 2;
#X connect 19 2 2 1;
#X connect 19 3 18 3;
#X connect 20 0 3 0;
