#N canvas 59 73 1166 705 10;
#X declare -path metaPdLibs/control;
#X declare -path metaPdLibs/fx;
#X declare -path metaPdLibs/instrument;
#X declare -path metaPdLibs/scales;
#X declare -path metaPdLibs;
#X declare -path rj;
#N canvas 1195 210 889 476 crystal 0;
#X obj 80 16 loadbang;
#X obj 33 16 inlet~;
#X obj 36 327 outlet~;
#X obj 279 30 inlet;
#X obj 312 116 line~;
#X obj 279 52 t b f;
#X msg 279 94 0 500;
#X obj 336 73 list append 50;
#X obj 279 74 delay 50;
#X obj 34 42 *~;
#X obj 430 29 vsl 15 128 0 1 0 0 empty empty empty 0 -9 0 10 -262144
-1 -1 0 1;
#X obj 81 92 f 12;
#X obj 36 298 *~ 0.5;
#X obj 60 115 pitchshift~;
#X obj 35 232 rlop~ 4720 1;
#X text 277 5 control inlet!;
#X obj 93 146 loadbang;
#X obj 54 264 rev2~ 100 95 14400 60;
#X obj 35 65 *~ 0.8;
#X obj 491 157 vline~;
#X obj 509 179 noise~;
#X obj 490 201 *~;
#X obj 491 94 bng 24 250 50 0 empty empty empty 17 7 0 10 -4034 -1
-1;
#X msg 491 121 0.8 10 \, 0 20 10;
#X msg 93 169 500;
#X msg 126 169 0.3;
#X obj 60 191 feedbackdelay 500;
#X obj 522 31 inlet;
#X obj 523 53 list append 50;
#X connect 0 0 11 0;
#X connect 1 0 9 0;
#X connect 3 0 5 0;
#X connect 4 0 9 1;
#X connect 5 0 8 0;
#X connect 5 1 7 0;
#X connect 6 0 4 0;
#X connect 7 0 4 0;
#X connect 8 0 6 0;
#X connect 9 0 18 0;
#X connect 10 0 7 0;
#X connect 11 0 13 1;
#X connect 12 0 2 0;
#X connect 13 0 26 0;
#X connect 14 0 12 0;
#X connect 14 0 17 0;
#X connect 16 0 24 0;
#X connect 16 0 25 0;
#X connect 17 0 12 0;
#X connect 18 0 13 0;
#X connect 18 0 14 0;
#X connect 19 0 21 0;
#X connect 20 0 21 1;
#X connect 21 0 18 0;
#X connect 22 0 23 0;
#X connect 23 0 19 0;
#X connect 24 0 26 1;
#X connect 25 0 26 2;
#X connect 26 0 14 0;
#X connect 27 0 28 0;
#X connect 28 0 4 0;
#X restore 143 598 pd crystal;
#X obj 227 551 loadbang;
#X obj 143 275 s_drumelectro;
#X obj 136 241 r \$0-drums;
#N canvas 668 57 450 300 includes 0;
#X obj 34 16 declare -path metaPdLibs/control;
#X obj 36 36 declare -path metaPdLibs/fx;
#X obj 34 57 declare -path metaPdLibs/instrument;
#X obj 33 79 declare -path metaPdLibs/scales;
#X obj 34 104 declare -path metaPdLibs;
#X obj 39 131 declare -path rj;
#X restore 23 29 pd includes;
#X obj 274 24 tgl 15 0 empty empty empty 17 7 0 10 -262144 -1 -1 0
1;
#X obj 297 24 touch_tester_auto \$0;
#X obj 300 50 block-tester \$0;
#X obj 712 487 vu 15 120 empty empty -1 -8 0 10 -66577 -1 1 0;
#X obj 661 550 - 100;
#X obj 661 528 env~;
#X obj 88 647 output_stage \$0;
#X obj 364 154 r \$0-input;
#X obj 371 187 list trim;
#N canvas 79 825 873 443 drumsynth 1;
#X obj 30 29 inlet notes;
#X obj 121 27 inlet bend;
#X obj 210 26 inlet dy;
#X obj 282 30 inlet press;
#X msg 91 165 hh;
#X msg 123 164 oh;
#X msg 164 164 cp;
#X obj 52 104 unpack 0 0;
#X obj 242 168 sel 0;
#X obj 249 207 t b a;
#X obj 254 326 s \$0-drums;
#X msg 62 164 sn;
#X obj 260 293 list prepend;
#X obj 80 358 s \$0-type;
#X msg 15 169 bd;
#X obj 318 220 r \$0-type;
#X obj 250 232 random 100;
#X obj 249 267 + 50;
#X obj 32 133 route 36 38 42 46 39;
#X obj 131 81 t a a;
#X obj 250 138 unpack 0 0;
#X obj 312 194 r \$0-rrange;
#X obj 291 263 r \$0-roffset;
#N canvas 0 22 450 300 settings 0;
#X obj 215 167 s \$0-rrange;
#X obj 100 170 s \$0-roffset;
#X obj 178 66 t b b;
#X obj 182 33 inlet;
#X obj 244 38 bng 15 250 50 0 empty empty empty 17 7 0 10 -262144 -1
-1;
#X msg 109 132 1000;
#X msg 225 127 2000;
#X connect 2 0 5 0;
#X connect 2 1 6 0;
#X connect 3 0 2 0;
#X connect 4 0 2 0;
#X connect 5 0 1 0;
#X connect 6 0 0 0;
#X restore 123 193 pd settings;
#N canvas 0 22 450 300 settings 0;
#X obj 215 167 s \$0-rrange;
#X obj 100 170 s \$0-roffset;
#X obj 178 66 t b b;
#X obj 182 33 inlet;
#X obj 244 38 bng 15 250 50 0 empty empty empty 17 7 0 10 -262144 -1
-1;
#X msg 225 127 20;
#X msg 109 132 80;
#X connect 2 0 6 0;
#X connect 2 1 5 0;
#X connect 3 0 2 0;
#X connect 4 0 2 0;
#X connect 5 0 0 0;
#X connect 6 0 1 0;
#X restore 144 220 pd settings;
#N canvas 0 22 450 300 settings 0;
#X obj 215 167 s \$0-rrange;
#X obj 100 170 s \$0-roffset;
#X obj 178 66 t b b;
#X obj 182 33 inlet;
#X obj 244 38 bng 15 250 50 0 empty empty empty 17 7 0 10 -262144 -1
-1;
#X msg 225 127 100;
#X msg 109 132 50;
#X connect 2 0 6 0;
#X connect 2 1 5 0;
#X connect 3 0 2 0;
#X connect 4 0 2 0;
#X connect 5 0 0 0;
#X connect 6 0 1 0;
#X restore 62 234 pd settings;
#N canvas 0 22 450 300 settings 0;
#X obj 215 167 s \$0-rrange;
#X obj 100 170 s \$0-roffset;
#X obj 178 66 t b b;
#X obj 182 33 inlet;
#X obj 244 38 bng 15 250 50 0 empty empty empty 17 7 0 10 -262144 -1
-1;
#X msg 109 132 100;
#X msg 225 127 100;
#X connect 2 0 5 0;
#X connect 2 1 6 0;
#X connect 3 0 2 0;
#X connect 4 0 2 0;
#X connect 5 0 1 0;
#X connect 6 0 0 0;
#X restore 57 260 pd settings;
#N canvas 27 61 450 300 settings 0;
#X obj 215 167 s \$0-rrange;
#X obj 100 170 s \$0-roffset;
#X obj 178 66 t b b;
#X obj 182 33 inlet;
#X obj 244 38 bng 15 250 50 0 empty empty empty 17 7 0 10 -262144 -1
-1;
#X msg 225 127 50;
#X msg 109 132 400;
#X connect 2 0 6 0;
#X connect 2 1 5 0;
#X connect 3 0 2 0;
#X connect 4 0 2 0;
#X connect 5 0 0 0;
#X connect 6 0 1 0;
#X restore 17 280 pd settings;
#X obj 736 79 abs;
#X floatatom 714 268 10 0 0 0 - - -, f 10;
#X obj 736 50 sel 0;
#X obj 740 166 /;
#X obj 732 105 t b a;
#X obj 733 25 r \$0-bend;
#X obj 120 48 s \$0-bend;
#X obj 745 231 s \$0-repeatspeed;
#X obj 517 90 r \$0-repeatspeed;
#N canvas 201 472 473 602 repeater 0;
#X obj 59 33 inlet onoff;
#X obj 320 29 inlet speed;
#X obj 141 508 outlet triggers;
#X obj 152 315 bng 15 250 50 0 empty empty empty 17 7 0 10 -262144
-1 -1;
#X obj 255 230 delay;
#X obj 272 260 s \$0-reptrig;
#X obj 134 286 spigot;
#X obj 208 91 r \$0-reptrig;
#X obj 251 306 bng 15 250 50 0 empty empty empty 17 7 0 10 -262144
-1 -1;
#X floatatom 306 225 5 0 0 0 - - -, f 5;
#X obj 308 60 sel 0;
#X obj 64 83 sel 0;
#X msg 51 181 0;
#X msg 106 181 1;
#X obj 99 115 t b b b;
#X obj 301 151 min 1000;
#X msg 271 181 10000;
#X obj 292 204 max 50;
#X obj 136 156 delay 2;
#X obj 300 131 f 1000;
#X obj 333 88 loadbang;
#X msg 253 132 400;
#X connect 0 0 11 0;
#X connect 1 0 10 0;
#X connect 4 0 5 0;
#X connect 4 0 6 0;
#X connect 4 0 8 0;
#X connect 6 0 3 0;
#X connect 6 0 2 0;
#X connect 7 0 4 0;
#X connect 10 1 19 0;
#X connect 11 0 12 0;
#X connect 11 1 14 0;
#X connect 12 0 16 0;
#X connect 12 0 6 1;
#X connect 13 0 6 1;
#X connect 14 0 18 0;
#X connect 14 1 21 0;
#X connect 14 2 13 0;
#X connect 15 0 17 0;
#X connect 16 0 17 0;
#X connect 17 0 4 1;
#X connect 17 0 9 0;
#X connect 18 0 4 0;
#X connect 19 0 15 0;
#X connect 20 0 19 0;
#X connect 21 0 17 0;
#X restore 469 113 pd repeater;
#X obj 429 50 sel 0;
#X msg 409 92 0;
#X msg 446 89 1;
#X obj 426 25 r \$0-bend;
#X msg 469 140 100;
#X obj 738 198 int;
#X msg 711 138 550;
#X connect 0 0 19 0;
#X connect 1 0 34 0;
#X connect 4 0 13 0;
#X connect 4 0 25 0;
#X connect 5 0 13 0;
#X connect 5 0 23 0;
#X connect 6 0 13 0;
#X connect 6 0 24 0;
#X connect 7 0 18 0;
#X connect 8 0 39 0;
#X connect 8 1 9 0;
#X connect 8 1 40 0;
#X connect 9 0 16 0;
#X connect 11 0 13 0;
#X connect 11 0 26 0;
#X connect 12 0 10 0;
#X connect 14 0 13 0;
#X connect 14 0 27 0;
#X connect 15 0 12 1;
#X connect 16 0 17 0;
#X connect 17 0 12 0;
#X connect 18 0 14 0;
#X connect 18 1 11 0;
#X connect 18 2 4 0;
#X connect 18 3 5 0;
#X connect 18 4 6 0;
#X connect 19 0 20 0;
#X connect 19 1 7 0;
#X connect 20 1 8 0;
#X connect 21 0 16 1;
#X connect 22 0 17 1;
#X connect 28 0 32 0;
#X connect 30 1 28 0;
#X connect 31 0 43 0;
#X connect 32 0 44 0;
#X connect 32 1 31 1;
#X connect 33 0 30 0;
#X connect 36 0 37 1;
#X connect 37 0 42 0;
#X connect 39 0 37 0;
#X connect 40 0 37 0;
#X connect 41 0 38 0;
#X connect 42 0 9 0;
#X connect 43 0 35 0;
#X connect 43 0 29 0;
#X connect 44 0 31 0;
#X restore 401 283 pd drumsynth;
#X obj 384 211 touch_to_drum 24 5;
#X msg 229 574 0;
#X obj 210 383 pitchshift~;
#X floatatom 290 358 5 0 0 0 - - -, f 5;
#X obj 128 455 c_xfade;
#X floatatom 209 445 5 0 0 0 - - -, f 5;
#X obj 154 491 hsl 128 15 0 1 0 0 empty empty empty -2 -8 0 10 -262144
-1 -1 0 1;
#X obj 141 304 *~ 0.32;
#X connect 0 0 11 0;
#X connect 0 0 11 1;
#X connect 1 0 16 0;
#X connect 2 0 22 0;
#X connect 3 0 2 0;
#X connect 5 0 6 0;
#X connect 9 0 8 0;
#X connect 10 0 9 0;
#X connect 11 0 10 0;
#X connect 12 0 13 0;
#X connect 13 0 15 0;
#X connect 15 0 14 0;
#X connect 15 1 17 1;
#X connect 15 1 18 0;
#X connect 15 2 14 2;
#X connect 15 2 0 1;
#X connect 15 2 20 0;
#X connect 15 2 19 2;
#X connect 15 3 14 3;
#X connect 15 4 14 1;
#X connect 16 0 0 1;
#X connect 17 0 19 1;
#X connect 19 0 11 0;
#X connect 19 0 11 1;
#X connect 19 0 0 0;
#X connect 20 0 21 0;
#X connect 22 0 19 0;
#X connect 22 0 17 0;
