#N canvas 578 107 546 681 10;
#X declare -path metaPdLibs/control;
#X declare -path metaPdLibs/fx;
#X declare -path metaPdLibs/instrument;
#X declare -path metaPdLibs/scales;
#X declare -path metaPdLibs;
#X declare -path rj;
#X obj 229 202 r \$0-input;
#X obj 229 224 list trim;
#X obj 227 245 t a a;
#N canvas 540 509 1140 735 rhodey 1;
#N canvas 424 366 478 366 pmosc 0;
#X obj 119 199 cos~;
#X obj 119 167 +~;
#X obj 120 273 outlet~;
#X obj 119 115 phasor~;
#X obj 119 86 inlet~;
#X obj 136 146 inlet~;
#X obj 160 199 inlet~;
#X obj 120 236 *~;
#X text 38 21 phase-modulation oscillator;
#X text 38 57 signal inlets: 1: freq \, 2: phase \, 3: amp;
#X connect 0 0 7 0;
#X connect 1 0 0 0;
#X connect 3 0 1 0;
#X connect 4 0 3 0;
#X connect 5 0 1 1;
#X connect 6 0 7 1;
#X connect 7 0 2 0;
#X restore 270 352 pd pmosc;
#N canvas 424 366 478 366 pmosc 0;
#X obj 119 199 cos~;
#X obj 119 167 +~;
#X obj 120 273 outlet~;
#X obj 119 115 phasor~;
#X obj 119 86 inlet~;
#X obj 136 146 inlet~;
#X obj 160 199 inlet~;
#X obj 120 236 *~;
#X text 38 21 phase-modulation oscillator;
#X text 38 57 signal inlets: 1: freq \, 2: phase \, 3: amp;
#X connect 0 0 7 0;
#X connect 1 0 0 0;
#X connect 3 0 1 0;
#X connect 4 0 3 0;
#X connect 5 0 1 1;
#X connect 6 0 7 1;
#X connect 7 0 2 0;
#X restore 245 396 pd pmosc;
#N canvas 424 366 478 366 pmosc 0;
#X obj 119 199 cos~;
#X obj 119 167 +~;
#X obj 120 273 outlet~;
#X obj 119 115 phasor~;
#X obj 119 86 inlet~;
#X obj 136 146 inlet~;
#X obj 160 199 inlet~;
#X obj 120 236 *~;
#X text 38 21 phase-modulation oscillator;
#X text 38 57 signal inlets: 1: freq \, 2: phase \, 3: amp;
#X connect 0 0 7 0;
#X connect 1 0 0 0;
#X connect 3 0 1 0;
#X connect 4 0 3 0;
#X connect 5 0 1 1;
#X connect 6 0 7 1;
#X connect 7 0 2 0;
#X restore 136 354 pd pmosc;
#N canvas 423 366 478 366 pmosc 0;
#X obj 119 199 cos~;
#X obj 119 167 +~;
#X obj 120 273 outlet~;
#X obj 119 115 phasor~;
#X obj 119 86 inlet~;
#X obj 136 146 inlet~;
#X obj 160 199 inlet~;
#X obj 120 236 *~;
#X text 38 21 phase-modulation oscillator;
#X text 38 57 signal inlets: 1: freq \, 2: phase \, 3: amp;
#X connect 0 0 7 0;
#X connect 1 0 0 0;
#X connect 3 0 1 0;
#X connect 4 0 3 0;
#X connect 5 0 1 1;
#X connect 6 0 7 1;
#X connect 7 0 2 0;
#X restore 109 399 pd pmosc;
#X obj 107 523 outlet~;
#X obj 397 149 * 0.535887;
#X obj 667 149 * 0.108819;
#X obj 671 281 / 127;
#X obj 397 286 / 127;
#X obj 397 127 / 127;
#X obj 397 172 t a a;
#X obj 397 308 t a a;
#X obj 671 303 t a a;
#X obj 667 169 t a a;
#X obj 667 123 / 127;
#X obj 671 253 r \$0-vel;
#X obj 667 94 r \$0-vel;
#X obj 397 258 r \$0-vel;
#X obj 397 101 r \$0-vel;
#X obj 38 45 unpack 0 0;
#X obj 105 69 s \$0-vel;
#X obj 38 21 inlet;
#X text 288 602 + --> Out;
#X text 241 616 2->1--/;
#X text 122 602 Algorithm 5 is : 4->3--;
#X text 118 581 4-op FM Rhodey piano based on algorithm 5:;
#X text 310 371 op 4;
#X text 277 413 op 3;
#X text 144 417 op 1;
#X text 169 370 op 2;
#X text 791 216 op 4;
#X text 819 324 op 3;
#X text 572 330 op 1;
#X text 573 198 op 2;
#X obj 840 31 inlet;
#X text 131 630 Clone of the STK Rhodey;
#N canvas 29 43 450 300 vib 0;
#X obj 144 64 inlet~;
#X obj 145 210 outlet~;
#X obj 144 168 +~;
#X obj 200 95 osc~ 0;
#X obj 200 64 inlet;
#X obj 281 65 inlet;
#X obj 199 123 *~ 0;
#X connect 0 0 2 0;
#X connect 2 0 1 0;
#X connect 3 0 6 0;
#X connect 4 0 3 0;
#X connect 5 0 6 1;
#X connect 6 0 2 1;
#X restore 108 278 pd vib;
#X obj 190 493 pack 0 10;
#X obj 190 470 r \$0-tone;
#X obj 150 220 r \$0-vib-freq;
#X obj 162 243 r \$0-vib-depth;
#X obj 561 88 r \$0-adsr24;
#X obj 561 112 / 127;
#X obj 666 222 *~ 1;
#X obj 397 221 *~ 1;
#X obj 272 210 r \$0-mod;
#X obj 275 437 loadbang;
#X msg 275 459 0.5;
#X obj 479 173 r \$0-decay;
#X obj 479 301 r \$0-decay;
#N canvas 172 83 586 377 LICENSE-GPL 0;
#X text 57 88 This program is free software: you can redistribute it
and/or modify it under the terms of the GNU General Public License
as published by the Free Software Foundation \, either version 3 of
the License \, or (at your option) any later version.;
#X text 58 168 This program is distributed in the hope that it will
be useful \, but WITHOUT ANY WARRANTY \; without even the implied warranty
of MERCHANTABILITY or FITNESS FOR A PARTICULAR PURPOSE. See the GNU
General Public License for more details.;
#X text 57 261 You should have received a copy of the GNU General Public
License along with this program. If not \, see <http://www.gnu.org/licenses/>.
;
#X text 61 54 Copyright (C) 2009 \, Reality Jockey Ltd.;
#X text 60 325 See the file LICENSE.txt for the full license text.
;
#X restore 972 29 pd LICENSE-GPL;
#X obj 840 103 dispatch \$0 tone;
#X obj 840 123 dispatch \$0 mod;
#X obj 840 144 dispatch \$0 vib-freq;
#X obj 840 166 dispatch \$0 vib-depth;
#X obj 840 186 dispatch \$0 adsr24;
#X obj 840 207 dispatch \$0 decay;
#X obj 108 493 xfade f;
#X obj 548 456 hsl 128 15 0 1 0 0 empty empty tone_(0...1) 20 7 1 10
-262144 -1 -1 0 1;
#X obj 547 477 s \$0-tone;
#X obj 549 502 hsl 128 15 0 100 0 0 empty empty vib_freq_(0...100)
20 7 1 10 -262144 -1 -1 0 1;
#X obj 547 523 s \$0-vib-freq;
#X obj 546 545 hsl 128 15 0 1 0 0 empty empty vib_depth_(0..1) 20 7
1 10 -262144 -1 -1 0 1;
#X obj 548 567 s \$0-vib-depth;
#X floatatom 758 456 5 0 0 0 - - -, f 5;
#X obj 758 475 s \$0-mod;
#X floatatom 759 501 5 0 0 0 - - -, f 5;
#X obj 759 520 s \$0-adsr24;
#X obj 550 589 hsl 128 15 0 3000 0 0 empty empty decay_(0...3000) 20
7 1 10 -262144 -1 -1 0 1;
#X obj 548 610 s \$0-decay;
#X obj 871 394 loadbang;
#X msg 854 497 127;
#X msg 809 451 1;
#X floatatom 618 476 5 0 0 0 - - -, f 5;
#X msg 666 432 0.3;
#X floatatom 635 523 5 0 0 0 - - -, f 5;
#X floatatom 642 567 5 0 0 0 - - -, f 5;
#X floatatom 618 611 5 0 0 0 - - -, f 5;
#X msg 513 523 1.5;
#X msg 514 568 0.6;
#X msg 514 611 1800;
#X obj 421 510 loadbang;
#X obj 840 229 dispatch \$0 bend;
#X obj 271 251 line~;
#X msg 271 230 \$1 5;
#X obj 135 376 *~;
#X obj 1007 485 r \$0-trigger;
#X obj 1007 514 sel 0;
#X obj 942 510 r \$0-bend;
#X obj 941 568 line;
#X obj 941 593 s \$0-bendproc;
#X msg 1006 542 0 100;
#X msg 940 540 \$1 5;
#X obj 199 164 mtof~;
#X obj 120 167 +~;
#X obj 48 105 sig~ 0;
#X obj 149 138 sig~ 0;
#X obj 124 112 r \$0-bendproc;
#X obj 270 326 *~ 15;
#X obj 136 331 *~ 0.5;
#X obj 397 199 adsr 1 1 1500 40 40;
#X obj 667 197 adsr 1 1 1000 40 40;
#X obj 671 330 adsr 1 1 250 40 40;
#X obj 399 333 adsr 1 1 1500 40 40;
#X connect 0 0 1 1;
#X connect 1 0 57 1;
#X connect 2 0 85 0;
#X connect 3 0 57 0;
#X connect 5 0 10 0;
#X connect 6 0 13 0;
#X connect 7 0 12 0;
#X connect 8 0 11 0;
#X connect 9 0 5 0;
#X connect 10 0 100 0;
#X connect 10 1 100 1;
#X connect 11 0 103 0;
#X connect 11 1 103 1;
#X connect 12 0 102 0;
#X connect 12 1 102 1;
#X connect 13 0 101 0;
#X connect 13 1 101 1;
#X connect 14 0 6 0;
#X connect 15 0 7 0;
#X connect 16 0 14 0;
#X connect 17 0 8 0;
#X connect 18 0 9 0;
#X connect 19 0 95 0;
#X connect 19 1 20 0;
#X connect 21 0 19 0;
#X connect 34 0 51 0;
#X connect 36 0 3 0;
#X connect 36 0 1 0;
#X connect 37 0 57 2;
#X connect 38 0 37 0;
#X connect 39 0 36 1;
#X connect 40 0 36 2;
#X connect 41 0 42 0;
#X connect 42 0 43 1;
#X connect 42 0 44 1;
#X connect 43 0 0 2;
#X connect 44 0 2 2;
#X connect 45 0 84 0;
#X connect 46 0 47 0;
#X connect 47 0 37 0;
#X connect 48 0 100 3;
#X connect 49 0 103 3;
#X connect 51 0 52 0;
#X connect 52 0 53 0;
#X connect 53 0 54 0;
#X connect 54 0 55 0;
#X connect 55 0 56 0;
#X connect 56 0 82 0;
#X connect 57 0 4 0;
#X connect 58 0 59 0;
#X connect 58 0 73 0;
#X connect 60 0 61 0;
#X connect 60 0 75 0;
#X connect 60 0 78 0;
#X connect 62 0 63 0;
#X connect 62 0 76 0;
#X connect 62 0 79 0;
#X connect 64 0 65 0;
#X connect 66 0 67 0;
#X connect 68 0 69 0;
#X connect 68 0 77 0;
#X connect 70 0 71 0;
#X connect 70 0 72 0;
#X connect 70 0 74 0;
#X connect 71 0 67 0;
#X connect 72 0 65 0;
#X connect 74 0 59 0;
#X connect 78 0 61 0;
#X connect 79 0 63 0;
#X connect 80 0 69 0;
#X connect 81 0 78 0;
#X connect 81 0 79 0;
#X connect 81 0 80 0;
#X connect 83 0 85 1;
#X connect 84 0 83 0;
#X connect 85 0 3 1;
#X connect 86 0 87 0;
#X connect 87 0 91 0;
#X connect 88 0 92 0;
#X connect 89 0 90 0;
#X connect 91 0 89 0;
#X connect 92 0 89 0;
#X connect 93 0 36 0;
#X connect 93 0 98 0;
#X connect 93 0 99 0;
#X connect 94 0 93 0;
#X connect 95 0 94 0;
#X connect 96 0 94 1;
#X connect 97 0 96 0;
#X connect 98 0 0 0;
#X connect 99 0 2 0;
#X connect 100 0 44 0;
#X connect 101 0 43 0;
#X connect 102 0 1 2;
#X connect 103 0 3 2;
#X restore 206 456 pd rhodey;
#X obj 323 383 + 25;
#X msg 323 405 decay \$1;
#X obj 315 307 t f;
#X obj 280 274 route /x /y /z /mov;
#X obj 323 361 * 1000;
#X msg 240 370 mod \$1;
#X msg 143 291 vib-depth \$1;
#N canvas 668 57 450 300 includes 0;
#X obj 34 16 declare -path metaPdLibs/control;
#X obj 36 36 declare -path metaPdLibs/fx;
#X obj 34 57 declare -path metaPdLibs/instrument;
#X obj 33 79 declare -path metaPdLibs/scales;
#X obj 34 104 declare -path metaPdLibs;
#X obj 39 131 declare -path rj;
#X restore 9 14 pd includes;
#X obj 10 36 block-tester \$0;
#X obj 187 630 output_stage;
#X obj 52 518 vu 15 120 empty empty -1 -8 0 10 -66577 -1 1 0;
#X obj 108 547 - 100;
#X obj 108 525 env~;
#X obj 286 532 rev2~ 90 70 14400 60;
#X obj 39 242 touch_to_notes 25 49;
#X msg 65 266 bend \$1;
#X obj 234 347 * 2;
#X obj 167 563 stereovol 94;
#X connect 0 0 1 0;
#X connect 1 0 2 0;
#X connect 1 0 18 0;
#X connect 2 0 7 0;
#X connect 3 0 17 0;
#X connect 3 0 21 0;
#X connect 3 0 21 1;
#X connect 4 0 5 0;
#X connect 5 0 3 1;
#X connect 6 0 8 0;
#X connect 7 1 6 0;
#X connect 8 0 4 0;
#X connect 9 0 3 1;
#X connect 10 0 3 1;
#X connect 13 0 16 0;
#X connect 15 0 14 0;
#X connect 16 0 15 0;
#X connect 17 0 21 0;
#X connect 17 0 21 1;
#X connect 18 0 3 0;
#X connect 18 1 19 0;
#X connect 18 2 20 0;
#X connect 18 3 10 0;
#X connect 19 0 3 1;
#X connect 20 0 9 0;
#X connect 21 0 13 0;
#X connect 21 1 13 1;
