#N canvas 0 23 588 373 10;
#X declare -path metaPdLibs/control;
#X declare -path metaPdLibs/fx;
#X declare -path metaPdLibs/instrument;
#X declare -path metaPdLibs/scales;
#X declare -path metaPdLibs;
#X declare -path rj;
#X declare -path .;
#X obj 118 43 r \$0-input;
#X obj 118 65 list trim;
#X obj 116 86 t a a;
#X obj 388 131 route /x /y /z /m;
#N canvas 668 57 450 300 includes 0;
#X obj 34 16 declare -path metaPdLibs/control;
#X obj 36 36 declare -path metaPdLibs/fx;
#X obj 34 57 declare -path metaPdLibs/instrument;
#X obj 33 79 declare -path metaPdLibs/scales;
#X obj 34 104 declare -path metaPdLibs;
#X obj 39 131 declare -path rj;
#X obj 26 166 declare -path .;
#X restore 24 13 pd includes;
#X obj 341 197 vu 15 120 empty empty -1 -8 0 10 -66577 -1 1 0;
#X obj 268 293 - 100;
#X obj 268 271 env~;
#X obj 148 280 output_stage \$0;
#X obj 274 24 tgl 15 0 empty empty empty 17 7 0 10 -262144 -1 -1 0
1;
#X obj 297 24 touch_tester_auto \$0;
#X obj 300 50 block-tester \$0;
#X obj 79 226 microjam_leadguitar_chain;
#X obj 95 158 touch_to_notes 36 37;
#X connect 0 0 1 0;
#X connect 1 0 2 0;
#X connect 2 0 3 0;
#X connect 2 0 13 0;
#X connect 6 0 5 0;
#X connect 7 0 6 0;
#X connect 8 0 7 0;
#X connect 9 0 10 0;
#X connect 12 0 8 0;
#X connect 12 1 8 1;
#X connect 13 0 12 0;
#X connect 13 1 12 1;
#X connect 13 2 12 2;
#X connect 13 3 12 3;
