#N canvas 535 60 939 686 10;
#X obj 119 554 outlet~;
#X obj 213 557 outlet~;
#N canvas 773 403 889 476 crystal 0;
#X obj 80 16 loadbang;
#X obj 33 16 inlet~;
#X obj 36 327 outlet~;
#X obj 279 30 inlet;
#X obj 312 116 line~;
#X obj 279 52 t b f;
#X msg 279 94 0 500;
#X obj 336 73 list append 50;
#X obj 279 74 delay 50;
#X obj 34 42 *~;
#X obj 430 29 vsl 15 128 0 1 0 0 empty empty empty 0 -9 0 10 -262144
-1 -1 0 1;
#X obj 81 92 f 12;
#X obj 36 298 *~ 0.5;
#X obj 60 115 pitchshift~;
#X obj 35 232 rlop~ 4720 1;
#X text 277 5 control inlet!;
#X obj 93 146 loadbang;
#X obj 54 264 rev2~ 100 95 14400 60;
#X obj 35 65 *~ 0.8;
#X obj 491 157 vline~;
#X obj 509 179 noise~;
#X obj 490 201 *~;
#X obj 491 94 bng 24 250 50 0 empty empty empty 17 7 0 10 -4034 -1
-1;
#X msg 491 121 0.8 10 \, 0 20 10;
#X msg 93 169 500;
#X msg 126 169 0.3;
#X obj 60 191 feedbackdelay 500;
#X connect 0 0 11 0;
#X connect 1 0 9 0;
#X connect 3 0 5 0;
#X connect 4 0 9 1;
#X connect 5 0 8 0;
#X connect 5 1 7 0;
#X connect 6 0 4 0;
#X connect 7 0 4 0;
#X connect 8 0 6 0;
#X connect 9 0 18 0;
#X connect 10 0 7 0;
#X connect 11 0 13 1;
#X connect 12 0 2 0;
#X connect 13 0 26 0;
#X connect 14 0 12 0;
#X connect 14 0 17 0;
#X connect 16 0 24 0;
#X connect 16 0 25 0;
#X connect 17 0 12 0;
#X connect 18 0 13 0;
#X connect 18 0 14 0;
#X connect 19 0 21 0;
#X connect 20 0 21 1;
#X connect 21 0 18 0;
#X connect 22 0 23 0;
#X connect 23 0 19 0;
#X connect 24 0 26 1;
#X connect 25 0 26 2;
#X connect 26 0 14 0;
#X restore 240 368 pd crystal;
#X obj 111 188 stringsynth;
#X obj 32 23 inlet notes;
#X obj 138 22 inlet lr;
#X obj 241 28 inlet dy;
#X obj 325 25 inlet pressure;
#X obj 425 25 inlet release;
#X floatatom 209 74 5 0 0 0 - - -, f 5;
#X obj 131 445 e_dubdel \$0-dubdel;
#X msg 340 151 dry \$1;
#N canvas 463 311 450 300 flip 0;
#X obj 98 55 inlet;
#X obj 96 148 outlet;
#X obj 97 86 * -1;
#X obj 96 112 + 1;
#X connect 0 0 2 0;
#X connect 2 0 3 0;
#X connect 3 0 1 0;
#X restore 344 119 pd flip;
#X msg 311 451 dry 0.2 \, bq 2 \, basedur 500 \, bpitch 83 \, feedback
0.99 \, dell 2 \, delr 3 \,;
#X obj 316 425 loadbang;
#X obj 261 159 *;
#X text 28 1 midi notes;
#X text 166 4 bend;
#X text 243 10 delta y;
#X text 373 5 pressure;
#N canvas 265 109 1240 788 distortion 1;
#X obj 138 41 inlet~;
#X obj 142 61 *~, f 2;
#X obj 601 160 inlet;
#X obj 713 162 inlet;
#X obj 801 160 inlet;
#X obj 895 162 inlet;
#X obj 99 267 *~;
#X obj 246 271 *~;
#X obj 400 271 *~;
#X text 114 518 metal zone! GET IN THE ZONE.;
#X text 598 135 dist;
#X obj 971 163 inlet;
#X obj 1065 165 inlet;
#X text 714 141 low;
#X text 804 138 mid;
#X text 888 136 high;
#X text 962 139 mid freq;
#X obj 971 192 vsl 15 128 0 1 0 0 empty empty empty 0 -9 0 10 -262144
-1 -1 2540 1;
#X obj 973 350 + 200;
#X obj 973 326 * 5000;
#X floatatom 975 374 5 0 0 0 - - -, f 5;
#X obj 416 231 hip~ 7000;
#X obj 718 384 dbtorms;
#X obj 715 197 vsl 15 128 -1 1 0 0 empty empty empty 0 -9 0 10 -262144
-1 -1 8572 1;
#X obj 715 337 * 15;
#X floatatom 718 406 9 0 0 0 - - -, f 9;
#X floatatom 740 311 5 0 0 0 - - -, f 5;
#X obj 717 360 + 100;
#X obj 805 379 dbtorms;
#X obj 802 192 vsl 15 128 -1 1 0 0 empty empty empty 0 -9 0 10 -262144
-1 -1 9588 1;
#X obj 802 332 * 15;
#X floatatom 805 401 9 0 0 0 - - -, f 9;
#X floatatom 827 306 5 0 0 0 - - -, f 5;
#X obj 804 355 + 100;
#X obj 888 380 dbtorms;
#X obj 885 193 vsl 15 128 -1 1 0 0 empty empty empty 0 -9 0 10 -262144
-1 -1 6985 1;
#X obj 885 333 * 15;
#X floatatom 888 402 9 0 0 0 - - -, f 9;
#X floatatom 910 307 5 0 0 0 - - -, f 5;
#X obj 887 356 + 100;
#X obj 246 234 bp~ 1000 4;
#X obj 237 374 *~;
#X obj 237 421 outlet~;
#X text 1065 141 outlet;
#X obj 1066 193 vsl 15 128 0 1 0 0 empty empty empty 0 -9 0 10 -262144
-1 -1 12700 1;
#X floatatom 1090 310 5 0 0 0 - - -, f 5;
#X obj 599 381 dbtorms;
#X obj 596 199 vsl 15 128 -1 1 0 0 empty empty empty 0 -9 0 10 -262144
-1 -1 12700 1;
#X floatatom 599 403 9 0 0 0 - - -, f 9;
#X floatatom 621 308 5 0 0 0 - - -, f 5;
#X obj 108 228 bp~ 200 3.1;
#X msg 791 47 0.1;
#X floatatom 997 300 5 0 0 0 - - -, f 5;
#X msg 835 46 0.2;
#X obj 715 13 loadbang;
#X msg 896 46 1;
#X msg 667 52 0.35;
#X obj 142 112 clip~ -1 1;
#X obj 598 357 + 120;
#X msg 595 54 1;
#X text 242 109 distort stage;
#X text 216 60 gain;
#X obj 145 151 *~ 1;
#X obj 63 87 expr~ tanh($v1);
#X floatatom 558 436 5 0 0 0 - - -, f 5;
#X text 529 478 alternatively \, * 20;
#X msg 741 48 0.51;
#X obj 596 334 * 42;
#X connect 0 0 1 0;
#X connect 1 0 57 0;
#X connect 1 0 63 0;
#X connect 2 0 47 0;
#X connect 3 0 23 0;
#X connect 4 0 29 0;
#X connect 5 0 35 0;
#X connect 6 0 41 0;
#X connect 7 0 41 0;
#X connect 8 0 41 0;
#X connect 11 0 17 0;
#X connect 12 0 44 0;
#X connect 17 0 19 0;
#X connect 17 0 52 0;
#X connect 18 0 20 0;
#X connect 18 0 40 1;
#X connect 19 0 18 0;
#X connect 21 0 8 0;
#X connect 22 0 25 0;
#X connect 23 0 24 0;
#X connect 23 0 26 0;
#X connect 24 0 27 0;
#X connect 25 0 6 1;
#X connect 27 0 22 0;
#X connect 28 0 31 0;
#X connect 29 0 30 0;
#X connect 29 0 32 0;
#X connect 30 0 33 0;
#X connect 31 0 7 1;
#X connect 33 0 28 0;
#X connect 34 0 37 0;
#X connect 35 0 36 0;
#X connect 35 0 38 0;
#X connect 36 0 39 0;
#X connect 37 0 8 1;
#X connect 39 0 34 0;
#X connect 40 0 7 0;
#X connect 41 0 42 0;
#X connect 44 0 45 0;
#X connect 44 0 41 1;
#X connect 46 0 48 0;
#X connect 47 0 49 0;
#X connect 47 0 67 0;
#X connect 48 0 1 1;
#X connect 50 0 6 0;
#X connect 51 0 35 0;
#X connect 53 0 17 0;
#X connect 54 0 56 0;
#X connect 54 0 66 0;
#X connect 54 0 51 0;
#X connect 54 0 53 0;
#X connect 54 0 55 0;
#X connect 54 0 59 0;
#X connect 55 0 44 0;
#X connect 56 0 23 0;
#X connect 58 0 46 0;
#X connect 58 0 64 0;
#X connect 59 0 47 0;
#X connect 62 0 50 0;
#X connect 62 0 40 0;
#X connect 62 0 21 0;
#X connect 63 0 62 0;
#X connect 66 0 29 0;
#X connect 67 0 58 0;
#X restore 112 334 pd distortion;
#X obj 133 404 e_chorus \$0-chorus;
#X msg 333 393 freq 0.8 \, mod 1;
#X obj 136 360 *~ 0.15;
#X obj 111 294 e_mcompressor 67 2;
#X connect 2 0 0 0;
#X connect 2 0 1 0;
#X connect 3 0 24 0;
#X connect 4 0 3 0;
#X connect 5 0 3 1;
#X connect 6 0 9 0;
#X connect 6 0 12 0;
#X connect 6 0 15 0;
#X connect 7 0 15 1;
#X connect 10 0 0 0;
#X connect 10 1 1 0;
#X connect 11 0 10 2;
#X connect 12 0 11 0;
#X connect 13 0 10 2;
#X connect 14 0 13 0;
#X connect 14 0 22 0;
#X connect 15 0 2 1;
#X connect 20 0 23 0;
#X connect 21 0 10 0;
#X connect 21 1 10 1;
#X connect 22 0 21 1;
#X connect 23 0 2 0;
#X connect 23 0 21 0;
#X connect 24 0 20 0;
