#N canvas -1445 -80 707 675 10;
#X obj 94 37 inlet;
#X obj 291 488 *~;
#X obj 253 527 +~;
#X obj 253 567 osc~;
#X obj 291 428 osc~;
#X obj 524 35 inlet;
#X obj 524 60 u_dispatch \$0 A;
#X obj 524 82 u_dispatch \$0 D;
#X obj 524 103 u_dispatch \$0 S;
#X obj 524 124 u_dispatch \$0 R;
#X obj 524 150 u_dispatch \$0 mA;
#X obj 524 172 u_dispatch \$0 mD;
#X obj 524 194 u_dispatch \$0 mS;
#X obj 524 214 u_dispatch \$0 mR;
#X obj 524 245 u_dispatch \$0 index;
#X obj 94 59 unpack 0 0;
#X text 94 15 note vel;
#X obj 40 90 stripnote;
#X obj 42 301 s \$0-freq;
#X obj 385 431 pack 0 10;
#X obj 385 453 line~;
#X obj 385 386 r \$0-index;
#X obj 151 83 / 127;
#X obj 151 103 s \$0-trigger;
#N canvas 510 110 562 403 cadsr 0;
#X obj 166 152 c_adsr 1 80 100 80 200;
#X obj 224 64 r \$0-trigger;
#X obj 224 101 t f f;
#X obj 275 101 r \$0-A;
#X obj 344 102 r \$0-D;
#X obj 396 101 r \$0-S;
#X obj 461 102 r \$0-R;
#X obj 81 199 *~;
#X obj 80 169 inlet~;
#X obj 80 229 outlet~;
#X connect 0 0 7 1;
#X connect 1 0 2 0;
#X connect 2 0 0 0;
#X connect 2 1 0 1;
#X connect 3 0 0 2;
#X connect 4 0 0 3;
#X connect 5 0 0 4;
#X connect 6 0 0 5;
#X connect 7 0 9 0;
#X connect 8 0 7 0;
#X restore 253 593 pd cadsr;
#N canvas -2113 317 610 428 madsr 0;
#X obj 81 199 *~;
#X obj 80 169 inlet~;
#X obj 80 229 outlet~;
#X obj 145 162 c_adsr 1 80 100 80 200;
#X obj 203 74 r \$0-trigger;
#X obj 203 111 t f f;
#X obj 254 111 r \$0-mA;
#X obj 323 112 r \$0-mD;
#X obj 375 111 r \$0-mS;
#X obj 440 112 r \$0-mR;
#X connect 0 0 2 0;
#X connect 1 0 0 0;
#X connect 3 0 0 1;
#X connect 4 0 5 0;
#X connect 5 0 3 0;
#X connect 5 1 3 1;
#X connect 6 0 3 2;
#X connect 7 0 3 3;
#X connect 8 0 3 4;
#X connect 9 0 3 5;
#X restore 290 451 pd madsr;
#X obj 253 629 outlet~;
#X obj 524 269 u_dispatch \$0 ratio;
#X obj 385 410 * 100;
#X obj 324 628 outlet~;
#X obj 41 273 mtof;
#X obj 41 248 +, f 4;
#X obj 525 297 u_dispatch \$0 bend;
#X obj 253 332 mtof~;
#X obj 258 303 +~;
#X obj 231 256 sig~ 0;
#X obj 293 258 sig~ 0;
#X obj 229 231 r \$0-note;
#X obj 61 119 s \$0-note;
#X obj 296 286 lop~ 100;
#X obj 41 218 f;
#X obj 58 185 t b f;
#X obj 310 372 r \$0-ratio;
#X obj 291 400 *~ 1;
#X floatatom 358 260 5 0 0 0 - - -, f 5;
#X obj 354 49 r \$0-trigger;
#X obj 354 78 sel 0;
#X obj 289 74 r \$0-bend;
#X obj 288 132 line;
#X obj 288 157 s \$0-bendproc;
#X obj 317 221 r \$0-bendproc;
#X obj 58 159 r \$0-bendproc;
#X msg 353 106 0 100;
#X msg 287 104 \$1 5;
#X connect 0 0 15 0;
#X connect 0 0 17 0;
#X connect 1 0 2 1;
#X connect 2 0 3 0;
#X connect 3 0 24 0;
#X connect 4 0 25 0;
#X connect 5 0 6 0;
#X connect 6 0 7 0;
#X connect 7 0 8 0;
#X connect 8 0 9 0;
#X connect 9 0 10 0;
#X connect 10 0 11 0;
#X connect 11 0 12 0;
#X connect 12 0 13 0;
#X connect 13 0 14 0;
#X connect 14 0 27 0;
#X connect 15 1 22 0;
#X connect 17 0 38 0;
#X connect 17 0 40 0;
#X connect 19 0 20 0;
#X connect 20 0 1 1;
#X connect 21 0 28 0;
#X connect 22 0 23 0;
#X connect 24 0 26 0;
#X connect 24 0 29 0;
#X connect 25 0 1 0;
#X connect 27 0 32 0;
#X connect 28 0 19 0;
#X connect 30 0 18 0;
#X connect 31 0 30 0;
#X connect 33 0 2 0;
#X connect 33 0 43 0;
#X connect 34 0 33 0;
#X connect 35 0 34 0;
#X connect 36 0 39 0;
#X connect 37 0 35 0;
#X connect 39 0 34 1;
#X connect 40 0 31 0;
#X connect 41 0 40 0;
#X connect 41 1 31 1;
#X connect 42 0 43 1;
#X connect 43 0 4 0;
#X connect 45 0 46 0;
#X connect 46 0 52 0;
#X connect 47 0 53 0;
#X connect 48 0 49 0;
#X connect 50 0 36 0;
#X connect 50 0 44 0;
#X connect 51 0 41 0;
#X connect 52 0 48 0;
#X connect 53 0 48 0;
