#N canvas -1976 65 1158 701 10;
#X declare -path metaPdLibs/control;
#X declare -path metaPdLibs/fx;
#X declare -path metaPdLibs/instrument;
#X declare -path metaPdLibs/scales;
#X declare -path control;
#X declare -path fx;
#X declare -path instrument;
#X declare -path scales;
#X declare -path rj;
#X declare -path metapdlibs;
#X obj 9 56 loadMetaPdLibs;
#X obj 10 11 declare -path rj;
#X obj 9 33 declare -path metapdlibs;
#X obj 342 624 dac~;
#N canvas 0 171 456 490 master-chain 0;
#X obj 24 10 inlet~;
#X obj 37 349 outlet~;
#X obj 51 140 e_scompress \$0-main;
#X obj 45 200 e_softclip \$0-main;
#X msg 154 109 attack 20 \, release 200 \, ratio 0.8 \, thresh 80;
#X msg 145 173 dry 0 \, drive 0.5;
#X obj 209 58 loadbang;
#X obj 54 263 monovol;
#X obj 28 68 monovol;
#X msg 146 60 90;
#X msg 133 270 99;
#X connect 0 0 8 0;
#X connect 2 0 3 0;
#X connect 3 0 7 0;
#X connect 4 0 2 2;
#X connect 5 0 3 1;
#X connect 6 0 4 0;
#X connect 6 0 5 0;
#X connect 6 0 9 0;
#X connect 6 0 10 0;
#X connect 7 0 1 0;
#X connect 8 0 2 0;
#X connect 9 0 8 1;
#X connect 10 0 7 1;
#X restore 302 588 pd master-chain;
#X obj 25 160 mpe_outlets 1;
#N canvas 0 171 456 490 master-chain 0;
#X obj 24 10 inlet~;
#X obj 37 349 outlet~;
#X obj 51 140 e_scompress \$0-main;
#X obj 45 200 e_softclip \$0-main;
#X msg 154 109 attack 20 \, release 200 \, ratio 0.8 \, thresh 80;
#X msg 145 173 dry 0 \, drive 0.5;
#X obj 209 58 loadbang;
#X obj 54 263 monovol;
#X obj 28 68 monovol;
#X msg 146 60 90;
#X msg 133 270 99;
#X connect 0 0 8 0;
#X connect 2 0 3 0;
#X connect 3 0 7 0;
#X connect 4 0 2 2;
#X connect 5 0 3 1;
#X connect 6 0 4 0;
#X connect 6 0 5 0;
#X connect 6 0 9 0;
#X connect 6 0 10 0;
#X connect 7 0 1 0;
#X connect 8 0 2 0;
#X connect 9 0 8 1;
#X connect 10 0 7 1;
#X restore 402 588 pd master-chain;
#X obj 122 160 mpe_outlets 5;
#X obj 215 160 mpe_outlets 9;
#X obj 312 159 mpe_outlets 13;
#X obj 343 213 mpe_outlets 2;
#X obj 439 214 mpe_outlets 6;
#X obj 532 213 mpe_outlets 10;
#X obj 447 104 mpe_outlets 3;
#X obj 674 249 mpe_outlets 4;
#X obj 543 103 mpe_outlets 7;
#X obj 770 249 mpe_outlets 8;
#X obj 636 103 mpe_outlets 11;
#X obj 863 249 mpe_outlets 12;
#X obj 629 212 mpe_outlets 13;
#X obj 733 102 mpe_outlets 14;
#X obj 960 248 mpe_outlets 15;
#X obj 780 341 microjam_pad_chain;
#X obj 106 304 microjam_pad_chain;
#X obj 326 302 microjam_pad_chain;
#X obj 490 302 microjam_pad_chain;
#X connect 4 0 3 0;
#X connect 5 0 23 0;
#X connect 5 1 23 1;
#X connect 5 2 23 2;
#X connect 5 3 23 3;
#X connect 6 0 3 1;
#X connect 7 0 23 0;
#X connect 7 1 23 1;
#X connect 7 2 23 2;
#X connect 7 3 23 3;
#X connect 8 0 23 0;
#X connect 8 1 23 1;
#X connect 8 2 23 2;
#X connect 8 3 23 3;
#X connect 9 0 23 0;
#X connect 9 1 23 1;
#X connect 9 2 23 2;
#X connect 9 3 23 3;
#X connect 10 0 24 0;
#X connect 10 1 24 1;
#X connect 10 2 24 2;
#X connect 10 3 24 3;
#X connect 11 0 24 0;
#X connect 11 1 24 1;
#X connect 11 2 24 2;
#X connect 11 3 24 3;
#X connect 12 0 24 0;
#X connect 12 1 24 1;
#X connect 12 2 24 2;
#X connect 12 3 24 3;
#X connect 13 0 25 0;
#X connect 13 1 25 1;
#X connect 13 2 25 2;
#X connect 13 3 25 3;
#X connect 14 0 22 0;
#X connect 14 1 22 1;
#X connect 14 2 22 2;
#X connect 14 3 22 3;
#X connect 15 0 25 0;
#X connect 15 1 25 1;
#X connect 15 2 25 2;
#X connect 15 3 25 3;
#X connect 16 0 22 0;
#X connect 16 1 22 1;
#X connect 16 2 22 2;
#X connect 16 3 22 3;
#X connect 17 0 25 0;
#X connect 17 1 25 1;
#X connect 17 2 25 2;
#X connect 17 3 25 3;
#X connect 18 0 22 0;
#X connect 18 1 22 1;
#X connect 18 2 22 2;
#X connect 18 3 22 3;
#X connect 19 0 24 0;
#X connect 19 1 24 1;
#X connect 19 2 24 2;
#X connect 19 3 24 3;
#X connect 20 0 25 0;
#X connect 20 1 25 1;
#X connect 20 2 25 2;
#X connect 20 3 25 3;
#X connect 21 0 22 0;
#X connect 21 1 22 1;
#X connect 21 2 22 2;
#X connect 21 3 22 3;
#X connect 22 0 4 0;
#X connect 22 1 6 0;
#X connect 23 0 4 0;
#X connect 23 1 6 0;
#X connect 24 0 4 0;
#X connect 24 1 6 0;
#X connect 25 0 4 0;
#X connect 25 1 6 0;
