#N canvas 846 38 1136 492 10;
#N canvas 0 117 646 567 reverb-aux 0;
#X obj 32 36 inlet~;
#X obj 33 488 outlet~;
#X obj 41 265 monovol;
#X obj 39 323 rev2~ 100 85 3000 50;
#X obj 87 487 outlet~;
#X obj 115 209 loadbang;
#X msg 155 244 80;
#X connect 2 0 3 0;
#X connect 3 0 1 0;
#X connect 3 1 4 0;
#X connect 5 0 6 0;
#X connect 6 0 2 1;
#X restore 253 354 pd reverb-aux;
#N canvas 437 187 889 499 crystal 0;
#X obj 80 16 loadbang;
#X obj 33 16 inlet~;
#X obj 36 327 outlet~;
#X obj 279 30 inlet;
#X obj 312 116 line~;
#X obj 279 52 t b f;
#X msg 279 94 0 500;
#X obj 336 73 list append 50;
#X obj 279 74 delay 50;
#X obj 34 42 *~;
#X obj 430 29 vsl 15 128 0 1 0 0 empty empty empty 0 -9 0 10 -262144
-1 -1 0 1;
#X obj 81 92 f 12;
#X obj 36 298 *~ 0.5;
#X obj 60 115 pitchshift~;
#X obj 35 232 rlop~ 4720 1;
#X text 277 5 control inlet!;
#X obj 93 146 loadbang;
#X obj 54 264 rev2~ 100 95 14400 60;
#X obj 35 65 *~ 0.8;
#X obj 491 157 vline~;
#X obj 509 179 noise~;
#X obj 490 201 *~;
#X obj 491 94 bng 24 250 50 0 empty empty empty 17 7 0 10 -4034 -1
-1;
#X msg 491 121 0.8 10 \, 0 20 10;
#X msg 93 169 500;
#X msg 126 169 0.3;
#X obj 60 191 feedbackdelay 500;
#X obj 522 31 inlet;
#X obj 523 53 list append 50;
#X connect 0 0 11 0;
#X connect 1 0 9 0;
#X connect 3 0 5 0;
#X connect 3 0 10 0;
#X connect 4 0 9 1;
#X connect 5 0 8 0;
#X connect 5 1 7 0;
#X connect 6 0 4 0;
#X connect 7 0 4 0;
#X connect 8 0 6 0;
#X connect 9 0 18 0;
#X connect 11 0 13 1;
#X connect 12 0 2 0;
#X connect 13 0 26 0;
#X connect 14 0 12 0;
#X connect 14 0 17 0;
#X connect 16 0 24 0;
#X connect 16 0 25 0;
#X connect 17 0 12 0;
#X connect 18 0 13 0;
#X connect 18 0 14 0;
#X connect 19 0 21 0;
#X connect 20 0 21 1;
#X connect 21 0 18 0;
#X connect 22 0 23 0;
#X connect 23 0 19 0;
#X connect 24 0 26 1;
#X connect 25 0 26 2;
#X connect 26 0 14 0;
#X connect 27 0 28 0;
#X connect 28 0 4 0;
#X restore 356 355 pd crystal;
#X msg 465 219 ratio 1 \, index 78 \, mR 241 \, mS 54 \, mD 60 \, mA
9 \, R 161 \, S 80 \, D 97 \, A 5 \,;
#X msg 226 216 bend \$1;
#X msg 387 61 ratio 4 \, index 62 \, mR 292 \, mS 8 \, mD 20 \, mA
0 \, R 120 \, S 50 \, D 55 \, A 7 \,;
#X obj 205 256 microjam_fmlead;
#X obj 95 259 microjam_fmlead;
#N canvas 615 210 450 323 midi_down_octave 0;
#X obj 85 26 inlet;
#X obj 80 176 outlet;
#X obj 78 140 pack 0 0;
#X obj 80 68 unpack;
#X obj 86 100 - 12;
#X connect 0 0 3 0;
#X connect 2 0 1 0;
#X connect 3 0 4 0;
#X connect 3 1 2 1;
#X connect 4 0 2 0;
#X restore 96 216 pd midi_down_octave;
#N canvas 615 210 450 323 midi_up_octave 0;
#X obj 85 26 inlet;
#X obj 80 176 outlet;
#X obj 78 140 pack 0 0;
#X obj 80 68 unpack;
#X obj 86 100 + 12;
#X connect 0 0 3 0;
#X connect 2 0 1 0;
#X connect 3 0 4 0;
#X connect 3 1 2 1;
#X connect 4 0 2 0;
#X restore 482 279 pd midi_up_octave;
#N canvas 0 260 450 300 octmix 0;
#X obj 57 48 inlet~;
#X obj 57 213 outlet~;
#X obj 67 140 *~;
#X obj 116 111 vline~;
#X obj 149 46 inlet;
#X obj 208 73 * -1;
#X obj 209 104 + 1;
#X msg 200 133 \$1 10;
#X connect 0 0 2 0;
#X connect 2 0 1 0;
#X connect 3 0 2 1;
#X connect 4 0 5 0;
#X connect 5 0 6 0;
#X connect 6 0 7 0;
#X connect 7 0 3 0;
#X restore 102 293 pd octmix;
#X obj 393 29 loadbang;
#X obj 228 440 outlet~;
#X obj 296 440 outlet~;
#X obj 78 32 inlet;
#X obj 121 33 inlet;
#X obj 173 31 inlet;
#X obj 226 29 inlet;
#X msg 502 141 ratio 9 \, index 40 \, mR 292 \, mS 8 \, mD 20 \, mA
0 \, R 120 \, S 50 \, D 55 \, A 15 \,;
#X obj 103 320 monovol 88;
#X obj 232 287 monovol 88;
#X connect 0 0 11 0;
#X connect 0 1 12 0;
#X connect 1 0 11 0;
#X connect 1 0 12 0;
#X connect 3 0 5 1;
#X connect 3 0 6 1;
#X connect 4 0 6 1;
#X connect 5 0 19 0;
#X connect 6 0 9 0;
#X connect 7 0 6 0;
#X connect 9 0 18 0;
#X connect 10 0 4 0;
#X connect 10 0 17 0;
#X connect 13 0 7 0;
#X connect 13 0 5 0;
#X connect 14 0 3 0;
#X connect 15 0 9 1;
#X connect 15 0 1 1;
#X connect 17 0 5 1;
#X connect 18 0 11 0;
#X connect 18 0 12 0;
#X connect 18 0 0 0;
#X connect 18 0 1 0;
#X connect 19 0 1 0;
#X connect 19 0 0 0;
#X connect 19 0 11 0;
#X connect 19 0 12 0;
