#N canvas 76 57 939 686 10;
#X obj 110 441 outlet~;
#X obj 204 444 outlet~;
#N canvas 773 403 889 476 crystal 0;
#X obj 80 16 loadbang;
#X obj 33 16 inlet~;
#X obj 36 327 outlet~;
#X obj 279 30 inlet;
#X obj 312 116 line~;
#X obj 279 52 t b f;
#X msg 279 94 0 500;
#X obj 336 73 list append 50;
#X obj 279 74 delay 50;
#X obj 34 42 *~;
#X obj 430 29 vsl 15 128 0 1 0 0 empty empty empty 0 -9 0 10 -262144
-1 -1 0 1;
#X obj 81 92 f 12;
#X obj 36 298 *~ 0.5;
#X obj 60 115 pitchshift~;
#X obj 35 232 rlop~ 4720 1;
#X text 277 5 control inlet!;
#X obj 93 146 loadbang;
#X obj 54 264 rev2~ 100 95 14400 60;
#X obj 35 65 *~ 0.8;
#X obj 491 157 vline~;
#X obj 509 179 noise~;
#X obj 490 201 *~;
#X obj 491 94 bng 24 250 50 0 empty empty empty 17 7 0 10 -4034 -1
-1;
#X msg 491 121 0.8 10 \, 0 20 10;
#X msg 93 169 500;
#X msg 126 169 0.3;
#X obj 60 191 feedbackdelay 500;
#X connect 0 0 11 0;
#X connect 1 0 9 0;
#X connect 3 0 5 0;
#X connect 4 0 9 1;
#X connect 5 0 8 0;
#X connect 5 1 7 0;
#X connect 6 0 4 0;
#X connect 7 0 4 0;
#X connect 8 0 6 0;
#X connect 9 0 18 0;
#X connect 10 0 7 0;
#X connect 11 0 13 1;
#X connect 12 0 2 0;
#X connect 13 0 26 0;
#X connect 14 0 12 0;
#X connect 14 0 17 0;
#X connect 16 0 24 0;
#X connect 16 0 25 0;
#X connect 17 0 12 0;
#X connect 18 0 13 0;
#X connect 18 0 14 0;
#X connect 19 0 21 0;
#X connect 20 0 21 1;
#X connect 21 0 18 0;
#X connect 22 0 23 0;
#X connect 23 0 19 0;
#X connect 24 0 26 1;
#X connect 25 0 26 2;
#X connect 26 0 14 0;
#X restore 240 368 pd crystal;
#X obj 105 213 stringsynth;
#X obj 32 23 inlet notes;
#X obj 110 21 inlet lr;
#X obj 177 20 inlet dy;
#X obj 246 25 inlet pressure;
#X obj 346 25 inlet release;
#X floatatom 197 47 5 0 0 0 - - -, f 5;
#X obj 202 249 *~ 0.6;
#X obj 100 323 e_dubdel \$0-dubdel;
#X msg 340 151 dry \$1;
#N canvas 463 311 450 300 flip 0;
#X obj 98 55 inlet;
#X obj 96 148 outlet;
#X obj 97 86 * -1;
#X obj 96 112 + 1;
#X connect 0 0 2 0;
#X connect 2 0 3 0;
#X connect 3 0 1 0;
#X restore 344 119 pd flip;
#X msg 291 297 dry 0.2 \, bq 2 \, basedur 500 \, bpitch 83 \, feedback
0.99 \, dell 2 \, delr 3 \,;
#X obj 296 271 loadbang;
#X connect 2 0 0 0;
#X connect 2 0 1 0;
#X connect 3 0 10 0;
#X connect 3 0 11 0;
#X connect 3 1 10 0;
#X connect 3 1 11 1;
#X connect 4 0 3 0;
#X connect 5 0 3 1;
#X connect 6 0 2 1;
#X connect 6 0 9 0;
#X connect 6 0 13 0;
#X connect 10 0 2 0;
#X connect 11 0 0 0;
#X connect 11 1 1 0;
#X connect 12 0 11 2;
#X connect 13 0 12 0;
#X connect 14 0 11 2;
#X connect 15 0 14 0;
