#N canvas -1686 -139 1221 651 10;
#X obj 48 38 inlet;
#X obj 145 39 inlet;
#X obj 238 37 inlet;
#X obj 339 34 inlet;
#X obj 446 69 hsl 128 15 0 1 0 0 empty empty empty -2 -8 0 10 -262144
-1 -1 5200 1;
#X obj 340 84 + 0.4;
#X obj 340 59 * 0.6;
#X text 37 18 midi notes;
#X text 140 14 bend;
#X text 248 12 dy;
#X obj 155 552 outlet~;
#X obj 244 551 outlet~;
#X obj 137 368 osc~;
#X obj 137 390 *~;
#X obj 273 290 line~;
#X obj 266 210 t b b;
#X obj 259 235 delay 50;
#X obj 55 320 line~;
#X msg 55 298 \$1 2;
#X obj 176 369 osc~;
#X obj 175 347 *~ 0.5;
#X obj 176 391 *~;
#X msg 147 234 \$1 2;
#X obj 147 258 line~;
#X floatatom 297 464 5 0 0 0 - - -, f 5;
#X obj 54 275 mtof;
#X obj 55 232 f;
#X obj 55 254 +;
#X obj 91 207 t b f;
#X text 355 12 z;
#X obj 228 436 line~;
#X msg 226 414 \$1 2;
#X obj 416 253 vu 15 120 empty empty -1 -8 0 10 -66577 -1 1 0;
#X obj 461 312 - 100;
#X obj 461 290 env~;
#X obj 286 495 rev2~ 90 85 3000 100;
#X floatatom 188 307 5 0 0 0 - - -, f 5;
#X obj 147 210 * 1;
#X obj 298 435 * 0.3;
#X obj 224 466 *~;
#X msg 250 261 0 100;
#X msg 297 260 1 15;
#X obj 298 413 + 0.05;
#X obj 298 390 * 0.95;
#X obj 150 425 xfade;
#X obj 150 471 *~ 0.4;
#X msg 213 389 \$1 2;
#X obj 670 70 inlet;
#X connect 0 0 26 0;
#X connect 1 0 28 0;
#X connect 2 0 37 0;
#X connect 2 0 43 0;
#X connect 3 0 6 0;
#X connect 3 0 15 0;
#X connect 5 0 4 0;
#X connect 6 0 5 0;
#X connect 12 0 13 0;
#X connect 13 0 44 0;
#X connect 14 0 13 1;
#X connect 14 0 21 1;
#X connect 15 0 16 0;
#X connect 15 1 41 0;
#X connect 16 0 40 0;
#X connect 17 0 12 0;
#X connect 17 0 20 0;
#X connect 18 0 17 0;
#X connect 19 0 21 0;
#X connect 20 0 19 0;
#X connect 21 0 44 1;
#X connect 22 0 23 0;
#X connect 25 0 18 0;
#X connect 26 0 27 0;
#X connect 27 0 25 0;
#X connect 28 0 26 0;
#X connect 28 1 27 1;
#X connect 30 0 39 1;
#X connect 31 0 30 0;
#X connect 33 0 32 0;
#X connect 34 0 33 0;
#X connect 35 0 11 0;
#X connect 35 0 10 0;
#X connect 37 0 22 0;
#X connect 37 0 36 0;
#X connect 38 0 24 0;
#X connect 38 0 31 0;
#X connect 39 0 34 0;
#X connect 39 0 35 0;
#X connect 40 0 14 0;
#X connect 41 0 14 0;
#X connect 42 0 38 0;
#X connect 43 0 42 0;
#X connect 44 0 45 0;
#X connect 44 0 39 0;
#X connect 45 0 10 0;
#X connect 45 0 11 0;
#X connect 46 0 44 2;
#X connect 47 0 46 0;
