#N canvas -1938 374 450 300 10;
#X obj 117 83 outlet;
#X obj 117 55 / 127;
#X obj 27 55 pack 0 0;
#X obj 27 83 outlet;
#X obj 189 55 / 127;
#X obj 189 83 outlet;
#X obj 277 55 / 127;
#X obj 277 83 outlet;
#X obj 27 19 notein;
#X obj 99 19 bendin;
#X obj 171 19 ctlin 74;
#X obj 255 19 touchin;
#X connect 1 0 0 0;
#X connect 2 0 3 0;
#X connect 4 0 5 0;
#X connect 6 0 7 0;
#X connect 8 0 2 0;
#X connect 8 1 2 1;
#X connect 9 0 1 0;
#X connect 10 0 4 0;
#X connect 11 0 6 0;
