#N canvas 664 115 340 104 10;
#X obj 98 20 bendin \$1;
#X obj 26 20 notein \$1;
#X obj 170 20 ctlin 74 \$1;
#X obj 254 20 touchin \$1;
#X obj 116 84 outlet;
#X obj 116 56 / 127;
#X obj 26 56 pack 0 0;
#X obj 26 84 outlet;
#X obj 188 56 / 127;
#X obj 188 84 outlet;
#X obj 276 56 / 127;
#X obj 276 84 outlet;
#X connect 0 0 5 0;
#X connect 1 0 6 0;
#X connect 1 1 6 1;
#X connect 2 0 8 0;
#X connect 3 0 10 0;
#X connect 5 0 4 0;
#X connect 6 0 7 0;
#X connect 8 0 9 0;
#X connect 10 0 11 0;
