#N canvas 800 83 743 395 10;
#X obj 137 44 ctlin;
#X floatatom 107 80 5 0 0 0 - - -, f 5;
#X floatatom 165 84 5 0 0 0 - - -, f 5;
#X floatatom 229 86 5 0 0 0 - - -, f 5;
#X obj 159 174 pack f f;
#X obj 338 268 bng 15 250 50 0 empty empty empty 17 7 0 10 -262144
-1 -1;
#X obj 372 268 bng 15 250 50 0 empty empty empty 17 7 0 10 -262144
-1 -1;
#X obj 159 214 route 1 2 16;
#X obj 338 247 select 0;
#X floatatom 65 245 5 0 0 0 - - -, f 5;
#X floatatom 230 247 5 0 0 0 - - -, f 5;
#X obj 132 246 / 127;
#X obj 173 245 / 127;
#X msg 109 273 /x \$1;
#X obj 109 299 s \$0-input;
#X obj 187 299 s \$0-input;
#X msg 187 273 /y \$1;
#X obj 37 123 print;
#N canvas 0 22 625 428 tester 0;
#X obj 137 44 ctlin;
#X floatatom 107 80 5 0 0 0 - - -, f 5;
#X floatatom 165 84 5 0 0 0 - - -, f 5;
#X floatatom 229 86 5 0 0 0 - - -, f 5;
#X obj 159 174 pack f f;
#X obj 338 268 bng 15 250 50 0 empty empty empty 17 7 0 10 -262144
-1 -1;
#X obj 372 268 bng 15 250 50 0 empty empty empty 17 7 0 10 -262144
-1 -1;
#X obj 159 214 route 1 2 16;
#X obj 338 247 select 0;
#X floatatom 65 245 5 0 0 0 - - -, f 5;
#X floatatom 230 247 5 0 0 0 - - -, f 5;
#X obj 132 246 / 127;
#X obj 173 245 / 127;
#X msg 109 273 /x \$1;
#X obj 109 299 s \$0-input;
#X obj 187 299 s \$0-input;
#X msg 187 273 /y \$1;
#X connect 0 0 1 0;
#X connect 0 1 2 0;
#X connect 0 2 3 0;
#X connect 1 0 4 1;
#X connect 2 0 4 0;
#X connect 4 0 7 0;
#X connect 7 0 11 0;
#X connect 7 0 9 0;
#X connect 7 1 12 0;
#X connect 7 1 10 0;
#X connect 7 2 8 0;
#X connect 8 0 5 0;
#X connect 8 1 6 0;
#X connect 11 0 13 0;
#X connect 12 0 16 0;
#X connect 13 0 14 0;
#X connect 16 0 15 0;
#X restore 342 105 pd tester;
#X obj 453 72 vsl 15 128 0 127 0 0 empty empty empty 0 -9 0 10 -262144
-1 -1 9900 1;
#X obj 313 209 hsl 128 15 0 127 0 0 empty empty empty -2 -8 0 10 -262144
-1 -1 10200 1;
#N canvas 0 22 625 428 tester 0;
#X obj 137 44 ctlin;
#X floatatom 107 80 5 0 0 0 - - -, f 5;
#X floatatom 165 84 5 0 0 0 - - -, f 5;
#X floatatom 229 86 5 0 0 0 - - -, f 5;
#X obj 159 174 pack f f;
#X obj 338 268 bng 15 250 50 0 empty empty empty 17 7 0 10 -262144
-1 -1;
#X obj 372 268 bng 15 250 50 0 empty empty empty 17 7 0 10 -262144
-1 -1;
#X obj 159 214 route 1 2 16;
#X obj 338 247 select 0;
#X floatatom 65 245 5 0 0 0 - - -, f 5;
#X floatatom 230 247 5 0 0 0 - - -, f 5;
#X obj 132 246 / 127;
#X obj 173 245 / 127;
#X msg 109 273 /x \$1;
#X obj 109 299 s \$0-input;
#X obj 187 299 s \$0-input;
#X msg 187 273 /y \$1;
#X connect 0 0 1 0;
#X connect 0 1 2 0;
#X connect 0 2 3 0;
#X connect 1 0 4 1;
#X connect 2 0 4 0;
#X connect 4 0 7 0;
#X connect 7 0 11 0;
#X connect 7 0 9 0;
#X connect 7 1 12 0;
#X connect 7 1 10 0;
#X connect 7 2 8 0;
#X connect 8 0 5 0;
#X connect 8 1 6 0;
#X connect 11 0 13 0;
#X connect 12 0 16 0;
#X connect 13 0 14 0;
#X connect 16 0 15 0;
#X restore 512 108 pd tester;
#X connect 0 0 1 0;
#X connect 0 1 2 0;
#X connect 0 2 3 0;
#X connect 1 0 4 1;
#X connect 2 0 4 0;
#X connect 4 0 7 0;
#X connect 7 0 11 0;
#X connect 7 0 9 0;
#X connect 7 0 20 0;
#X connect 7 1 12 0;
#X connect 7 1 10 0;
#X connect 7 1 19 0;
#X connect 7 2 8 0;
#X connect 8 0 5 0;
#X connect 8 1 6 0;
#X connect 11 0 13 0;
#X connect 12 0 16 0;
#X connect 13 0 14 0;
#X connect 16 0 15 0;
