#N canvas 526 55 708 551 10;
#X obj 155 457 dac~;
#X obj 223 360 *~;
#X obj 128 359 *~;
#X obj 128 3 inlet~;
#X obj 223 4 inlet~;
#X obj 128 56 clip~ -1 1;
#X obj 223 57 clip~ -1 1;
#X obj 128 31 hip~ 3;
#X obj 223 31 hip~ 3;
#X obj 433 320 pack 0 20;
#X obj 433 296 route float;
#X obj 254 324 line~;
#X msg 333 321 1;
#X obj 332 294 loadbang;
#X obj 236 457 outlet~;
#X floatatom 432 344 5 0 0 0 - - -, f 5;
#X obj 325 31 t b;
#X obj 380 83 t b;
#X obj 380 61 r fadein-\$1;
#X obj 323 9 r fadeout-\$1;
#X msg 324 53 0 50;
#X msg 379 105 1 50;
#X obj 323 356 line~;
#X obj 130 405 *~;
#X obj 207 404 *~;
#X obj 433 271 r \$1-volume;
#X connect 1 0 24 0;
#X connect 2 0 23 0;
#X connect 3 0 7 0;
#X connect 4 0 8 0;
#X connect 5 0 2 0;
#X connect 6 0 1 0;
#X connect 7 0 5 0;
#X connect 8 0 6 0;
#X connect 9 0 22 0;
#X connect 10 0 9 0;
#X connect 10 0 15 0;
#X connect 11 0 1 1;
#X connect 11 0 2 1;
#X connect 12 0 9 0;
#X connect 13 0 12 0;
#X connect 16 0 20 0;
#X connect 17 0 21 0;
#X connect 18 0 17 0;
#X connect 19 0 16 0;
#X connect 20 0 11 0;
#X connect 21 0 11 0;
#X connect 22 0 24 1;
#X connect 22 0 23 1;
#X connect 23 0 0 0;
#X connect 24 0 0 1;
#X connect 24 0 14 0;
#X connect 25 0 10 0;
