#N canvas -1714 230 450 576 10;
#X obj 128 391 dac~;
#X obj 223 360 *~;
#X obj 128 359 *~;
#X obj 128 3 inlet~;
#X obj 223 4 inlet~;
#X obj 128 56 clip~ -1 1;
#X obj 223 57 clip~ -1 1;
#X obj 128 31 hip~ 3;
#X obj 223 31 hip~ 3;
#X obj 324 217 pack 0 20;
#X obj 324 193 route float;
#X obj 254 324 line~;
#X obj 324 168 r master-vol;
#X msg 267 181 1;
#X obj 266 154 loadbang;
#X obj 245 398 outlet~;
#X floatatom 340 258 5 0 0 0 - - -, f 5;
#X connect 1 0 0 1;
#X connect 1 0 15 0;
#X connect 2 0 0 0;
#X connect 3 0 7 0;
#X connect 4 0 8 0;
#X connect 5 0 2 0;
#X connect 6 0 1 0;
#X connect 7 0 5 0;
#X connect 8 0 6 0;
#X connect 9 0 11 0;
#X connect 10 0 9 0;
#X connect 10 0 16 0;
#X connect 11 0 1 1;
#X connect 11 0 2 1;
#X connect 12 0 10 0;
#X connect 13 0 9 0;
#X connect 14 0 13 0;
