#N canvas 563 196 364 235 10;
#X declare -path metaPdLibs/control;
#X declare -path metaPdLibs/fx;
#X declare -path metaPdLibs/instrument;
#X declare -path metaPdLibs/scales;
#X declare -path metaPdLibs;
#X declare -path rj;
#X obj 187 160 dac~;
#X obj 140 37 list trim;
#X obj 140 60 t a a;
#X obj 140 15 r \$0-input;
#N canvas 668 57 450 300 includes 0;
#X obj 34 16 declare -path metaPdLibs/control;
#X obj 36 36 declare -path metaPdLibs/fx;
#X obj 34 57 declare -path metaPdLibs/instrument;
#X obj 33 79 declare -path metaPdLibs/scales;
#X obj 34 104 declare -path metaPdLibs;
#X obj 39 131 declare -path rj;
#X restore 21 8 pd includes;
#X obj 30 80 vu 15 120 empty empty -1 -8 0 10 -66577 -1 1 0;
#X obj 86 109 - 100;
#X obj 86 87 env~;
#X obj 140 121 microjam_pad_chain;
#X obj 140 86 touch_to_notes 36 25;
#X obj 230 19 block-tester \$0;
#X connect 1 0 2 0;
#X connect 2 0 9 0;
#X connect 3 0 1 0;
#X connect 6 0 5 0;
#X connect 7 0 6 0;
#X connect 8 0 7 0;
#X connect 8 0 0 0;
#X connect 8 1 0 1;
#X connect 9 0 8 0;
#X connect 9 1 8 1;
#X connect 9 2 8 2;
#X connect 9 3 8 3;
