#N canvas 176 64 677 680 10;
#X declare -path metaPdLibs/control;
#X declare -path metaPdLibs/fx;
#X declare -path metaPdLibs/instrument;
#X declare -path metaPdLibs/scales;
#X declare -path metaPdLibs;
#X declare -path rj;
#X obj 288 456 dac~;
#X obj 115 36 list trim;
#X obj 115 59 t a a;
#X obj 115 14 r \$0-input;
#X obj 23 37 block-tester;
#N canvas 276 285 540 300 autotest 0;
#X msg 332 156 /x \$1;
#X obj 332 112 random 1000;
#X obj 332 133 / 1000;
#X obj 148 48 metro 2000;
#X obj 245 118 random 1000;
#X obj 245 139 / 1000;
#X msg 245 162 /y \$1;
#X obj 333 180 s \$0-input;
#X floatatom 340 205 5 0 0 0 - - -, f 5;
#X floatatom 234 209 5 0 0 0 - - -, f 5;
#X obj 161 120 random 1000;
#X obj 161 141 / 1000;
#X floatatom 154 202 5 0 0 0 - - -, f 5;
#X msg 160 164 /z \$1;
#X obj 187 18 inlet;
#X floatatom 40 205 5 0 0 0 - - -, f 5;
#X obj 41 111 random 2;
#X msg 40 155 /m \$1;
#X obj 144 69 t b b b b;
#X obj 127 24 bng 15 250 50 0 empty empty empty 17 7 0 10 -262144 -1
-1;
#X obj 241 184 s \$0-input;
#X obj 161 188 s \$0-input;
#X obj 41 178 s \$0-input;
#X connect 0 0 7 0;
#X connect 1 0 2 0;
#X connect 2 0 0 0;
#X connect 2 0 8 0;
#X connect 3 0 18 0;
#X connect 4 0 5 0;
#X connect 5 0 6 0;
#X connect 5 0 9 0;
#X connect 6 0 20 0;
#X connect 10 0 11 0;
#X connect 11 0 13 0;
#X connect 11 0 12 0;
#X connect 13 0 21 0;
#X connect 14 0 3 0;
#X connect 16 0 17 0;
#X connect 16 0 15 0;
#X connect 17 0 22 0;
#X connect 18 0 16 0;
#X connect 18 1 10 0;
#X connect 18 2 4 0;
#X connect 18 3 1 0;
#X connect 19 0 18 0;
#X restore 373 44 pd autotest;
#X obj 353 46 tgl 15 0 empty empty empty 17 7 0 10 -262144 -1 -1 0
1;
#N canvas 118 409 350 392 manual-test 0;
#X obj 31 121 hsl 128 15 0 1 0 0 empty empty empty -2 -8 0 10 -262144
-1 -1 0 1;
#X obj 155 -28 vsl 15 128 1 0 0 0 empty empty empty 0 -9 0 10 -262144
-1 -1 0 1;
#X obj 106 164 f;
#X obj 145 164 f;
#X obj 67 30 bng 15 250 50 0 empty empty empty 17 7 0 10 -262144 -1
-1;
#X msg 36 209 /x \$1;
#X msg 164 219 /y \$1;
#X obj 102 295 s \$0-input;
#X floatatom 44 258 5 0 0 0 - - -, f 5;
#X floatatom 157 257 5 0 0 0 - - -, f 5;
#X msg 228 212 /m 0;
#X obj 73 62 t b b b;
#X connect 0 0 2 1;
#X connect 1 0 3 1;
#X connect 2 0 8 0;
#X connect 2 0 5 0;
#X connect 3 0 9 0;
#X connect 3 0 6 0;
#X connect 4 0 11 0;
#X connect 5 0 7 0;
#X connect 6 0 7 0;
#X connect 10 0 7 0;
#X connect 11 0 10 0;
#X connect 11 1 2 0;
#X connect 11 2 3 0;
#X restore 259 47 pd manual-test;
#N canvas 668 57 450 300 includes 0;
#X obj 34 16 declare -path metaPdLibs/control;
#X obj 36 36 declare -path metaPdLibs/fx;
#X obj 34 57 declare -path metaPdLibs/instrument;
#X obj 33 79 declare -path metaPdLibs/scales;
#X obj 34 104 declare -path metaPdLibs;
#X obj 39 131 declare -path rj;
#X restore 24 13 pd includes;
#X obj 43 543 vu 15 120 empty empty -1 -8 0 10 -66577 -1 1 0;
#X obj 99 572 - 100;
#X obj 99 550 env~;
#X obj 241 417 microjam_pad_chain;
#X obj 36 191 + 36;
#X obj 36 143 * 25;
#X obj 35 168 int;
#X floatatom 71 191 5 0 0 0 - - -, f 5;
#X obj 115 80 route /x /y /z /m;
#X obj 174 166 * 50;
#X obj 174 188 + 60;
#X floatatom 182 211 5 0 0 0 - - -, f 5;
#X obj 244 165 * 350;
#X obj 246 191 + 50;
#X obj 34 224 s \$0-pitch;
#X obj 170 239 s \$0-vel;
#X obj 253 217 s \$0-dur;
#X floatatom 329 342 5 0 0 0 - - -, f 5;
#N canvas 772 362 450 300 delta_y 0;
#X obj 63 33 inlet;
#X obj 224 33 inlet;
#X obj 197 226 outlet;
#X obj 170 187 abs;
#X obj 169 162 -;
#X obj 223 63 sel 0;
#X msg 231 184 0;
#X obj 200 90 t b;
#X obj 188 64 t b;
#X obj 36 75 f;
#X text 71 75 input buf;
#X text 195 162 minus saved;
#X obj 168 129 f;
#X connect 0 0 9 1;
#X connect 0 0 12 1;
#X connect 1 0 5 0;
#X connect 3 0 2 0;
#X connect 4 0 3 0;
#X connect 5 0 6 0;
#X connect 5 0 8 0;
#X connect 5 1 7 0;
#X connect 6 0 2 0;
#X connect 7 0 12 0;
#X connect 8 0 9 0;
#X connect 9 0 4 1;
#X connect 12 0 4 0;
#X restore 276 315 pd delta_y;
#N canvas 772 362 450 300 delta_x 0;
#X obj 63 33 inlet;
#X obj 224 33 inlet;
#X obj 197 226 outlet;
#X obj 169 162 -;
#X obj 223 63 sel 0;
#X msg 231 184 0;
#X obj 200 90 t b;
#X obj 188 64 t b;
#X obj 36 75 f;
#X text 71 75 input buf;
#X text 195 162 minus saved;
#X obj 168 129 f;
#X floatatom 17 34 5 0 0 0 - - -, f 5;
#X floatatom 39 109 5 0 0 0 - - -, f 5;
#X floatatom 94 173 5 0 0 0 - - -, f 5;
#X connect 0 0 8 1;
#X connect 0 0 11 1;
#X connect 0 0 12 0;
#X connect 1 0 4 0;
#X connect 3 0 2 0;
#X connect 3 0 14 0;
#X connect 4 0 5 0;
#X connect 4 0 7 0;
#X connect 4 1 6 0;
#X connect 5 0 2 0;
#X connect 6 0 11 0;
#X connect 7 0 8 0;
#X connect 8 0 3 1;
#X connect 8 0 13 0;
#X connect 11 0 3 0;
#X restore 196 314 pd delta_x;
#X floatatom 240 348 5 0 0 0 - - -, f 5;
#X obj 205 342 * 12;
#X obj 442 220 t b b b;
#X obj 443 252 f;
#X obj 473 251 f;
#X obj 504 251 f;
#X obj 451 313 pack 0 0;
#X obj 513 179 r \$0-pitch;
#X obj 517 201 r \$0-vel;
#X obj 525 225 r \$0-dur;
#X obj 440 171 sel 0;
#N canvas 0 22 450 300 delayed_note_off 0;
#X obj 127 21 inlet;
#X obj 128 191 outlet;
#X obj 152 76 delay 300;
#X obj 126 131 f;
#X msg 161 134 0;
#X obj 153 100 t b b;
#X obj 131 156 pack 0 0;
#X obj 127 47 t f b;
#X connect 0 0 7 0;
#X connect 2 0 5 0;
#X connect 3 0 6 0;
#X connect 4 0 6 1;
#X connect 5 0 3 0;
#X connect 5 1 4 0;
#X connect 6 0 1 0;
#X connect 7 0 3 1;
#X connect 7 1 2 0;
#X restore 522 308 pd delayed_note_off;
#X obj 523 282 r \$0-pitch;
#X text 457 150 movement input;
#X connect 1 0 2 0;
#X connect 2 0 17 0;
#X connect 3 0 1 0;
#X connect 4 0 2 0;
#X connect 6 0 5 0;
#X connect 10 0 9 0;
#X connect 11 0 10 0;
#X connect 12 0 11 0;
#X connect 12 0 0 0;
#X connect 12 1 0 1;
#X connect 13 0 16 0;
#X connect 13 0 23 0;
#X connect 14 0 15 0;
#X connect 15 0 13 0;
#X connect 17 0 14 0;
#X connect 17 0 28 0;
#X connect 17 1 18 0;
#X connect 17 1 21 0;
#X connect 17 1 27 0;
#X connect 17 1 12 2;
#X connect 17 2 12 3;
#X connect 17 2 27 1;
#X connect 17 3 28 1;
#X connect 17 3 39 0;
#X connect 18 0 19 0;
#X connect 19 0 20 0;
#X connect 19 0 24 0;
#X connect 21 0 22 0;
#X connect 22 0 25 0;
#X connect 27 0 26 0;
#X connect 28 0 30 0;
#X connect 30 0 29 0;
#X connect 30 0 12 1;
#X connect 31 0 32 0;
#X connect 31 1 33 0;
#X connect 31 2 34 0;
#X connect 32 0 35 0;
#X connect 33 0 35 1;
#X connect 35 0 12 0;
#X connect 36 0 32 1;
#X connect 37 0 33 1;
#X connect 38 0 34 1;
#X connect 39 0 31 0;
#X connect 40 0 12 0;
#X connect 41 0 40 0;
