#N canvas 382 22 1105 966 10;
#X declare -path metaPdLibs;
#X floatatom 272 241 4 0 127 0 - - -, f 4;
#X text 268 203 center;
#X obj 272 308 line~;
#X obj 272 285 pack 0 50;
#X floatatom 205 246 4 0 127 0 - - -, f 4;
#X text 153 204 fundamental;
#X floatatom 397 252 4 0 127 0 - - -, f 4;
#X obj 397 323 line~;
#X obj 132 586 *~;
#X obj 397 300 pack 0 50;
#X obj 132 635 cos~;
#X obj 206 310 mtof;
#X obj 294 333 expr 1/$f1;
#X obj 272 261 mtof;
#X text 267 218 freq.;
#X obj 272 357 *~;
#X text 394 231 bandwidth;
#X obj 397 274 mtof;
#X obj 396 366 *~;
#X text 437 358 divide by fundamental;
#X text 149 220 (MIDI units);
#X obj 79 421 phasor~;
#X obj 471 479 +~ 0.5;
#X obj 471 504 wrap~;
#X text 442 424 second phase signal;
#X text 443 439 out of phase from;
#X text 441 456 first one;
#X obj 132 658 +~ 1;
#X obj 78 522 -~ 0.5;
#X obj 135 692 +~;
#X obj 77 586 *~;
#X obj 77 609 cos~;
#X obj 214 556 samphold~;
#X obj 126 555 samphold~;
#X obj 76 634 *~;
#X obj 132 610 clip~ -0.5 0.5;
#X obj 372 597 *~;
#X obj 372 646 cos~;
#X obj 372 669 +~ 1;
#X obj 318 533 -~ 0.5;
#X obj 317 597 *~;
#X obj 317 620 cos~;
#X obj 454 567 samphold~;
#X obj 366 566 samphold~;
#X obj 316 645 *~;
#X obj 372 621 clip~ -0.5 0.5;
#X obj 396 390 max~ 1;
#X obj 205 285 - 12;
#X obj 117 -45 r \$0-input;
#X obj 117 -23 list trim;
#X obj 337 -76 declare -path metaPdLibs;
#X obj 360 -44 loadMetaPdLibs;
#X obj 115 -2 t a a;
#X msg 296 63 /x \$1;
#X obj 296 19 random 1000;
#X obj 296 40 / 1000;
#X obj 294 -36 tgl 15 0 empty empty empty 17 7 0 10 -262144 -1 -1 0
1;
#X obj 393 30 bng 15 250 50 0 empty empty empty 17 7 0 10 -262144 -1
-1;
#X obj 295 -6 metro 2000;
#X obj 424 29 random 1000;
#X obj 424 50 / 1000;
#X msg 424 73 /y \$1;
#X obj 62 59 t f;
#X obj 296 89 s \$0-input;
#X obj 115 23 route /x /y /z /m;
#X obj 172 108 * 200;
#X obj 169 131 + 50;
#X floatatom 304 112 5 0 0 0 - - -, f 5;
#X floatatom 417 111 5 0 0 0 - - -, f 5;
#N canvas 917 270 450 300 mov-proc 0;
#X obj 57 68 moses 0.5;
#X obj 101 97 t b;
#X obj 50 93 t b;
#X obj 66 12 inlet;
#X obj 62 190 outlet;
#X msg 105 140 25;
#X msg 38 135 200, f 7;
#X connect 0 0 2 0;
#X connect 0 1 1 0;
#X connect 1 0 5 0;
#X connect 2 0 6 0;
#X connect 3 0 0 0;
#X connect 5 0 4 0;
#X connect 6 0 4 0;
#X restore 220 142 pd mov-proc;
#X floatatom 169 157 5 0 0 0 - - -, f 5;
#X floatatom 220 164 5 0 0 0 - - -, f 5;
#X obj 631 748 dac~;
#X obj 717 622 / 100;
#X obj 717 602 random 20;
#X obj 717 643 + 0.4;
#X obj 582 667 *~;
#X obj 637 533 t a b b;
#N canvas 461 422 794 645 envperc 0;
#X obj 102 440 outlet~;
#X obj 15 48 inlet;
#X obj 185 48 inlet;
#X text 183 24 volume (0-1);
#X text 15 23 trigger - start envelope;
#X text 143 387 handle the volume scaling.;
#X obj 102 309 vline~;
#X obj 102 383 *~;
#X obj 293 49 inlet;
#X obj 371 49 inlet;
#X text 291 24 attack;
#X text 372 24 release;
#X text 41 515 percussive envelope generator - cpm 2014;
#X obj 101 239 f;
#X obj 513 33 loadbang;
#X msg 496 66 25;
#X msg 556 64 4000;
#X msg 615 64 1;
#X text 583 35 defaults;
#X obj 360 73 s \$0-envrel;
#X obj 281 73 s \$0-envatt;
#X obj 181 71 s \$0-envvol;
#X obj 92 194 r \$0-envatt;
#X obj 187 194 r \$0-envrel;
#X obj 117 353 r \$0-envvol;
#X obj 470 90 s \$0-envatt;
#X obj 546 91 s \$0-envrel;
#X obj 623 93 s \$0-envvol;
#X floatatom 212 122 5 0 0 0 - - -, f 5;
#X floatatom 296 123 5 0 0 0 - - -, f 5;
#X floatatom 364 123 5 0 0 0 - - -, f 5;
#X obj 172 230 f;
#X obj 144 140 t b b;
#X obj 116 260 pack f f;
#X msg 103 284 1 \$1 \, 0 \$2 \$1;
#X connect 1 0 32 0;
#X connect 2 0 21 0;
#X connect 2 0 28 0;
#X connect 6 0 7 0;
#X connect 7 0 0 0;
#X connect 8 0 20 0;
#X connect 8 0 29 0;
#X connect 9 0 19 0;
#X connect 9 0 30 0;
#X connect 13 0 33 0;
#X connect 14 0 15 0;
#X connect 14 0 16 0;
#X connect 14 0 17 0;
#X connect 15 0 25 0;
#X connect 16 0 26 0;
#X connect 17 0 27 0;
#X connect 22 0 13 1;
#X connect 23 0 31 1;
#X connect 24 0 7 1;
#X connect 31 0 33 1;
#X connect 32 0 13 0;
#X connect 32 1 31 0;
#X connect 33 0 34 0;
#X connect 34 0 6 0;
#X restore 597 644 pd envperc;
#X obj 616 582 r \$0-vel;
#X obj 635 603 r \$0-att;
#X obj 654 622 r \$0-rel;
#N canvas 534 124 497 393 pan 0;
#X text 189 156 * ~M_PI/2;
#X obj 116 148 * 1.5708;
#X obj 116 33 inlet;
#X obj 37 35 inlet~;
#X obj 38 324 outlet~;
#X obj 129 328 outlet~;
#X obj 57 180 cos;
#X obj 146 182 sin;
#X msg 167 105 0.5;
#X obj 129 297 *~;
#X obj 38 293 *~;
#X obj 146 266 line~;
#X obj 146 240 pack 0 10;
#X obj 57 269 line~;
#X obj 57 243 pack 0 10;
#X obj 167 81 loadbang;
#X connect 1 0 6 0;
#X connect 1 0 7 0;
#X connect 2 0 1 0;
#X connect 3 0 9 0;
#X connect 3 0 10 0;
#X connect 6 0 14 0;
#X connect 7 0 12 0;
#X connect 8 0 1 0;
#X connect 9 0 5 0;
#X connect 10 0 4 0;
#X connect 11 0 9 1;
#X connect 12 0 11 0;
#X connect 13 0 10 1;
#X connect 14 0 13 0;
#X connect 15 0 8 0;
#X restore 626 722 pd pan;
#X obj 152 176 s \$0-rel;
#X obj 220 186 s \$0-att;
#X obj 652 473 r \$0-trig;
#X obj 115 103 s \$0-trig;
#X obj 322 156 t f;
#X obj 379 157 t f;
#X obj 429 721 rev2~ 70 95 3000 60;
#X text 555 178 wave packet synth \, from help patch 3.14;
#X obj 52 260 s \$0-vel;
#X obj 512 23 random 1000;
#X obj 512 44 / 1000;
#X floatatom 505 105 5 0 0 0 - - -, f 5;
#X msg 511 67 /z \$1;
#X floatatom 97 235 5 0 0 0 - - -, f 5;
#X obj 56 210 + 0.5;
#X obj 55 186 * 0.5;
#X obj 53 235 min 1;
#X obj 744 332 hsl 128 15 0 1 0 0 empty empty empty -2 -8 0 10 -262144
-1 -1 800 1;
#X obj 868 183 vsl 15 128 1 0 0 0 empty empty empty 0 -9 0 10 -262144
-1 -1 10900 1;
#X obj 819 375 f;
#X obj 858 375 f;
#X obj 780 241 bng 15 250 50 0 empty empty empty 17 7 0 10 -262144
-1 -1;
#X obj 786 273 t b b;
#X msg 749 420 /x \$1;
#X msg 877 430 /y \$1;
#X obj 749 446 s \$0-input;
#X floatatom 757 469 5 0 0 0 - - -, f 5;
#X floatatom 870 468 5 0 0 0 - - -, f 5;
#X obj 324 189 * 70;
#X obj 64 92 * 50;
#X obj 64 113 + 30;
#X obj 324 210 + 50;
#X obj 130 51 t a a a a;
#X obj 381 190 * 70;
#X obj 381 211 + 45;
#X connect 0 0 13 0;
#X connect 2 0 15 0;
#X connect 3 0 2 0;
#X connect 4 0 47 0;
#X connect 6 0 17 0;
#X connect 7 0 18 0;
#X connect 8 0 35 0;
#X connect 9 0 7 0;
#X connect 10 0 27 0;
#X connect 11 0 12 0;
#X connect 11 0 21 0;
#X connect 12 0 15 1;
#X connect 12 0 18 1;
#X connect 13 0 3 0;
#X connect 15 0 33 0;
#X connect 15 0 43 0;
#X connect 17 0 9 0;
#X connect 18 0 46 0;
#X connect 21 0 22 0;
#X connect 21 0 28 0;
#X connect 21 0 33 1;
#X connect 21 0 32 1;
#X connect 22 0 23 0;
#X connect 23 0 39 0;
#X connect 23 0 43 1;
#X connect 23 0 42 1;
#X connect 27 0 34 1;
#X connect 28 0 8 0;
#X connect 28 0 30 0;
#X connect 29 0 76 0;
#X connect 30 0 31 0;
#X connect 31 0 34 0;
#X connect 32 0 8 1;
#X connect 33 0 30 1;
#X connect 34 0 29 0;
#X connect 35 0 10 0;
#X connect 36 0 45 0;
#X connect 37 0 38 0;
#X connect 38 0 44 1;
#X connect 39 0 36 0;
#X connect 39 0 40 0;
#X connect 40 0 41 0;
#X connect 41 0 44 0;
#X connect 42 0 36 1;
#X connect 43 0 40 1;
#X connect 44 0 29 1;
#X connect 45 0 37 0;
#X connect 46 0 32 0;
#X connect 46 0 42 0;
#X connect 47 0 11 0;
#X connect 48 0 49 0;
#X connect 49 0 52 0;
#X connect 52 0 64 0;
#X connect 53 0 63 0;
#X connect 54 0 55 0;
#X connect 55 0 53 0;
#X connect 55 0 67 0;
#X connect 56 0 58 0;
#X connect 57 0 54 0;
#X connect 58 0 54 0;
#X connect 58 0 59 0;
#X connect 58 0 92 0;
#X connect 59 0 60 0;
#X connect 60 0 61 0;
#X connect 60 0 68 0;
#X connect 61 0 63 0;
#X connect 62 0 112 0;
#X connect 64 0 62 0;
#X connect 64 1 115 0;
#X connect 64 2 98 0;
#X connect 64 3 69 0;
#X connect 65 0 66 0;
#X connect 66 0 70 0;
#X connect 69 0 71 0;
#X connect 70 0 83 0;
#X connect 71 0 84 0;
#X connect 73 0 75 0;
#X connect 74 0 73 0;
#X connect 75 0 82 1;
#X connect 76 0 82 0;
#X connect 76 0 89 0;
#X connect 77 1 78 0;
#X connect 77 2 74 0;
#X connect 78 0 76 1;
#X connect 79 0 78 1;
#X connect 80 0 78 2;
#X connect 81 0 78 3;
#X connect 82 0 72 0;
#X connect 82 1 72 1;
#X connect 85 0 77 0;
#X connect 87 0 111 0;
#X connect 88 0 116 0;
#X connect 89 0 72 0;
#X connect 89 1 72 1;
#X connect 92 0 93 0;
#X connect 93 0 95 0;
#X connect 93 0 94 0;
#X connect 95 0 63 0;
#X connect 97 0 99 0;
#X connect 98 0 97 0;
#X connect 99 0 91 0;
#X connect 99 0 96 0;
#X connect 100 0 102 1;
#X connect 101 0 103 1;
#X connect 102 0 109 0;
#X connect 102 0 106 0;
#X connect 103 0 110 0;
#X connect 103 0 107 0;
#X connect 104 0 105 0;
#X connect 105 0 102 0;
#X connect 105 1 103 0;
#X connect 106 0 108 0;
#X connect 107 0 108 0;
#X connect 111 0 114 0;
#X connect 112 0 113 0;
#X connect 113 0 4 0;
#X connect 114 0 0 0;
#X connect 115 0 86 0;
#X connect 115 1 65 0;
#X connect 115 2 87 0;
#X connect 115 3 88 0;
#X connect 116 0 117 0;
#X connect 117 0 6 0;
