#N canvas 541 23 1105 966 10;
#X declare -path metaPdLibs/control;
#X declare -path metaPdLibs/fx;
#X declare -path metaPdLibs/instrument;
#X declare -path metaPdLibs/scales;
#X declare -path metaPdLibs;
#X declare -path rj;
#X floatatom 272 241 4 0 127 0 - - -, f 4;
#X text 268 203 center;
#X obj 272 308 line~;
#X obj 272 285 pack 0 50;
#X floatatom 205 246 4 0 127 0 - - -, f 4;
#X text 153 204 fundamental;
#X floatatom 397 252 4 0 127 0 - - -, f 4;
#X obj 397 323 line~;
#X obj 132 586 *~;
#X obj 397 300 pack 0 50;
#X obj 132 635 cos~;
#X obj 206 310 mtof;
#X obj 294 333 expr 1/$f1;
#X obj 272 261 mtof;
#X text 267 218 freq.;
#X obj 272 357 *~;
#X text 394 231 bandwidth;
#X obj 397 274 mtof;
#X obj 396 366 *~;
#X text 437 358 divide by fundamental;
#X text 149 220 (MIDI units);
#X obj 79 421 phasor~;
#X obj 471 479 +~ 0.5;
#X obj 471 504 wrap~;
#X text 442 424 second phase signal;
#X text 443 439 out of phase from;
#X text 441 456 first one;
#X obj 132 658 +~ 1;
#X obj 78 522 -~ 0.5;
#X obj 135 692 +~;
#X obj 77 586 *~;
#X obj 77 609 cos~;
#X obj 214 556 samphold~;
#X obj 126 555 samphold~;
#X obj 76 634 *~;
#X obj 132 610 clip~ -0.5 0.5;
#X obj 372 597 *~;
#X obj 372 646 cos~;
#X obj 372 669 +~ 1;
#X obj 318 533 -~ 0.5;
#X obj 317 597 *~;
#X obj 317 620 cos~;
#X obj 454 567 samphold~;
#X obj 366 566 samphold~;
#X obj 316 645 *~;
#X obj 372 621 clip~ -0.5 0.5;
#X obj 396 390 max~ 1;
#X obj 205 285 - 12;
#X obj 117 -45 r \$0-input;
#X obj 117 -23 list trim;
#X obj 115 -2 t a a;
#X obj 62 59 t f;
#X obj 115 23 route /x /y /z /m;
#X obj 172 108 * 200;
#X obj 169 131 + 50;
#N canvas 917 270 450 300 mov-proc 0;
#X obj 57 68 moses 0.5;
#X obj 101 97 t b;
#X obj 50 93 t b;
#X obj 66 12 inlet;
#X obj 62 190 outlet;
#X msg 105 140 25;
#X msg 38 135 200, f 7;
#X connect 0 0 2 0;
#X connect 0 1 1 0;
#X connect 1 0 5 0;
#X connect 2 0 6 0;
#X connect 3 0 0 0;
#X connect 5 0 4 0;
#X connect 6 0 4 0;
#X restore 220 142 pd mov-proc;
#X floatatom 169 157 5 0 0 0 - - -, f 5;
#X floatatom 220 164 5 0 0 0 - - -, f 5;
#X obj 656 654 / 100;
#X obj 656 634 random 20;
#X obj 656 675 + 0.4;
#X obj 582 667 *~;
#X obj 769 288 r \$0-att;
#X obj 834 301 r \$0-rel;
#N canvas 534 124 497 393 pan 0;
#X text 189 156 * ~M_PI/2;
#X obj 116 148 * 1.5708;
#X obj 116 33 inlet;
#X obj 37 35 inlet~;
#X obj 38 324 outlet~;
#X obj 129 328 outlet~;
#X obj 57 180 cos;
#X obj 146 182 sin;
#X msg 167 105 0.5;
#X obj 129 297 *~;
#X obj 38 293 *~;
#X obj 146 266 line~;
#X obj 146 240 pack 0 10;
#X obj 57 269 line~;
#X obj 57 243 pack 0 10;
#X obj 167 81 loadbang;
#X connect 1 0 6 0;
#X connect 1 0 7 0;
#X connect 2 0 1 0;
#X connect 3 0 9 0;
#X connect 3 0 10 0;
#X connect 6 0 14 0;
#X connect 7 0 12 0;
#X connect 8 0 1 0;
#X connect 9 0 5 0;
#X connect 10 0 4 0;
#X connect 11 0 9 1;
#X connect 12 0 11 0;
#X connect 13 0 10 1;
#X connect 14 0 13 0;
#X connect 15 0 8 0;
#X restore 624 724 pd pan;
#X obj 152 176 s \$0-rel;
#X obj 220 186 s \$0-att;
#X obj 103 97 s \$0-trig;
#X obj 322 156 t f;
#X obj 379 157 t f;
#X obj 692 724 rev2~ 70 95 3000 60;
#X obj 52 260 s \$0-vel;
#X floatatom 97 235 5 0 0 0 - - -, f 5;
#X obj 53 235 min 1;
#X obj 324 189 * 70;
#X obj 324 210 + 50;
#X obj 130 51 t a a a a;
#X obj 381 190 * 70;
#X obj 381 211 + 45;
#X obj 842 712 vu 15 120 empty empty -1 -8 0 10 -66577 -1 1 0;
#X obj 841 686 - 100;
#X obj 841 664 env~;
#X obj 56 210 + 0.2;
#X obj 55 187 * 0.4;
#X obj 425 -17 block-tester \$0;
#N canvas 668 57 450 300 includes 0;
#X obj 34 16 declare -path metaPdLibs/control;
#X obj 36 36 declare -path metaPdLibs/fx;
#X obj 34 57 declare -path metaPdLibs/instrument;
#X obj 33 79 declare -path metaPdLibs/scales;
#X obj 34 104 declare -path metaPdLibs;
#X obj 39 131 declare -path rj;
#X restore 467 -41 pd includes;
#X obj 632 806 output_stage \$0;
#X obj 57 113 + 24;
#X obj 57 93 * 49;
#X obj 705 339 c_adsr 1 5 80 70 50;
#X obj 664 583 r \$0-trig;
#X obj 705 310 t a a;
#X obj 662 606 t b, f 5;
#X obj 435 39 touch_to_notes 24 49;
#X obj 603 175 unpack 0 0;
#X obj 673 213 / 127;
#X obj 263 720 *~ 0.91;
#X text 45 850 wave packet synth \, from help patch 3.F14;
#X connect 0 0 13 0;
#X connect 2 0 15 0;
#X connect 3 0 2 0;
#X connect 4 0 47 0;
#X connect 6 0 17 0;
#X connect 7 0 18 0;
#X connect 8 0 35 0;
#X connect 9 0 7 0;
#X connect 10 0 27 0;
#X connect 11 0 12 0;
#X connect 11 0 21 0;
#X connect 12 0 15 1;
#X connect 12 0 18 1;
#X connect 13 0 3 0;
#X connect 15 0 33 0;
#X connect 15 0 43 0;
#X connect 17 0 9 0;
#X connect 18 0 46 0;
#X connect 21 0 22 0;
#X connect 21 0 28 0;
#X connect 21 0 33 1;
#X connect 21 0 32 1;
#X connect 22 0 23 0;
#X connect 23 0 39 0;
#X connect 23 0 43 1;
#X connect 23 0 42 1;
#X connect 27 0 34 1;
#X connect 28 0 8 0;
#X connect 28 0 30 0;
#X connect 29 0 96 0;
#X connect 30 0 31 0;
#X connect 31 0 34 0;
#X connect 32 0 8 1;
#X connect 33 0 30 1;
#X connect 34 0 29 0;
#X connect 35 0 10 0;
#X connect 36 0 45 0;
#X connect 37 0 38 0;
#X connect 38 0 44 1;
#X connect 39 0 36 0;
#X connect 39 0 40 0;
#X connect 40 0 41 0;
#X connect 41 0 44 0;
#X connect 42 0 36 1;
#X connect 43 0 40 1;
#X connect 44 0 29 1;
#X connect 45 0 37 0;
#X connect 46 0 32 0;
#X connect 46 0 42 0;
#X connect 47 0 11 0;
#X connect 48 0 49 0;
#X connect 49 0 50 0;
#X connect 50 0 52 0;
#X connect 50 0 93 0;
#X connect 51 0 88 0;
#X connect 52 0 51 0;
#X connect 52 1 76 0;
#X connect 52 2 83 0;
#X connect 52 3 55 0;
#X connect 53 0 54 0;
#X connect 54 0 56 0;
#X connect 55 0 57 0;
#X connect 56 0 65 0;
#X connect 57 0 66 0;
#X connect 58 0 60 0;
#X connect 59 0 58 0;
#X connect 60 0 64 1;
#X connect 61 0 64 0;
#X connect 61 0 70 0;
#X connect 62 0 89 2;
#X connect 63 0 89 5;
#X connect 64 0 86 0;
#X connect 64 1 86 1;
#X connect 68 0 74 0;
#X connect 69 0 77 0;
#X connect 70 0 86 0;
#X connect 70 1 86 1;
#X connect 73 0 71 0;
#X connect 73 0 72 0;
#X connect 74 0 75 0;
#X connect 75 0 0 0;
#X connect 76 0 67 0;
#X connect 76 1 53 0;
#X connect 76 2 68 0;
#X connect 76 3 69 0;
#X connect 77 0 78 0;
#X connect 78 0 6 0;
#X connect 80 0 79 0;
#X connect 81 0 80 0;
#X connect 82 0 73 0;
#X connect 83 0 82 0;
#X connect 86 0 81 0;
#X connect 87 0 4 0;
#X connect 88 0 87 0;
#X connect 89 0 61 1;
#X connect 90 0 92 0;
#X connect 91 0 89 0;
#X connect 91 1 89 1;
#X connect 92 0 59 0;
#X connect 93 0 94 0;
#X connect 94 1 95 0;
#X connect 95 0 91 0;
#X connect 96 0 61 0;
