#N canvas 535 43 713 713 10;
#X declare -path metaPdLibs;
#X declare -path metaPdLibs/control;
#X declare -path metaPdLibs/fx;
#X declare -path metaPdLibs/instrument;
#X declare -path metaPdLibs/scales;
#X declare -path control;
#X declare -path fx;
#X declare -path instrument;
#X declare -path scales;
#X declare -path .;
#X obj 146 563 dac~;
#X obj 118 43 r \$0-input;
#X obj 118 65 list trim;
#X obj 338 12 declare -path metaPdLibs;
#X obj 361 44 loadMetaPdLibs;
#N canvas 634 202 889 476 crystal 0;
#X obj 80 16 loadbang;
#X obj 33 16 inlet~;
#X obj 36 327 outlet~;
#X obj 279 30 inlet;
#X obj 312 116 line~;
#X obj 279 52 t b f;
#X msg 279 94 0 500;
#X obj 336 73 list append 50;
#X obj 279 74 delay 50;
#X obj 34 42 *~;
#X obj 430 29 vsl 15 128 0 1 0 0 empty empty empty 0 -9 0 10 -262144
-1 -1 0 1;
#X obj 81 92 f 12;
#X obj 36 298 *~ 0.5;
#X obj 60 115 pitchshift~;
#X obj 35 232 rlop~ 4720 1;
#X text 277 5 control inlet!;
#X obj 93 146 loadbang;
#X obj 54 264 rev2~ 100 95 14400 60;
#X obj 35 65 *~ 0.8;
#X obj 491 157 vline~;
#X obj 509 179 noise~;
#X obj 490 201 *~;
#X obj 491 94 bng 24 250 50 0 empty empty empty 17 7 0 10 -4034 -1
-1;
#X msg 491 121 0.8 10 \, 0 20 10;
#X msg 93 169 500;
#X msg 126 169 0.3;
#X obj 60 191 feedbackdelay 500;
#X obj 522 31 inlet;
#X obj 523 53 list append 10;
#X connect 0 0 11 0;
#X connect 1 0 9 0;
#X connect 3 0 5 0;
#X connect 4 0 9 1;
#X connect 5 0 8 0;
#X connect 5 1 7 0;
#X connect 6 0 4 0;
#X connect 7 0 4 0;
#X connect 8 0 6 0;
#X connect 9 0 18 0;
#X connect 10 0 7 0;
#X connect 11 0 13 1;
#X connect 12 0 2 0;
#X connect 13 0 26 0;
#X connect 14 0 12 0;
#X connect 14 0 17 0;
#X connect 16 0 24 0;
#X connect 16 0 25 0;
#X connect 17 0 12 0;
#X connect 18 0 13 0;
#X connect 18 0 14 0;
#X connect 19 0 21 0;
#X connect 20 0 21 1;
#X connect 21 0 18 0;
#X connect 22 0 23 0;
#X connect 23 0 19 0;
#X connect 24 0 26 1;
#X connect 25 0 26 2;
#X connect 26 0 14 0;
#X connect 27 0 28 0;
#X connect 28 0 4 0;
#X restore 231 459 pd crystal;
#X obj 316 396 vsl 15 128 0 1 0 0 empty empty empty 0 -9 0 10 -262144
-1 -1 3810 1;
#X obj 339 395 loadbang;
#X obj 116 86 t a a;
#X obj 96 304 stringsynth;
#X msg 297 151 /x \$1;
#X obj 297 107 random 1000;
#X obj 297 128 / 1000;
#X obj 295 52 tgl 15 0 empty empty empty 17 7 0 10 -262144 -1 -1 0
1;
#X obj 394 118 bng 15 250 50 0 empty empty empty 17 7 0 10 -262144
-1 -1;
#X obj 296 82 metro 2000;
#X obj 425 117 random 1000;
#X obj 425 138 / 1000;
#X msg 425 161 /y \$1;
#X obj 59 226 t f b b;
#X floatatom 60 249 5 0 0 0 - - -, f 5;
#X obj 76 272 pack 0 0;
#X msg 341 418 0.3;
#X obj 297 177 s \$0-input;
#X obj 116 111 route /x /y /z /m;
#X obj 173 196 * 200;
#X obj 170 219 + 50;
#X floatatom 305 200 5 0 0 0 - - -, f 5;
#X floatatom 418 199 5 0 0 0 - - -, f 5;
#N canvas 1121 168 450 300 mov-proc 1;
#X obj 57 68 moses 0.5;
#X obj 101 97 t b;
#X obj 52 95 t b;
#X obj 66 12 inlet;
#X obj 62 190 outlet;
#X msg 102 131 25;
#X msg 52 132 200;
#X connect 0 0 2 0;
#X connect 0 1 1 0;
#X connect 1 0 5 0;
#X connect 2 0 6 0;
#X connect 3 0 0 0;
#X connect 5 0 4 0;
#X connect 6 0 4 0;
#X restore 221 230 pd mov-proc;
#X obj 142 261 * 127;
#X obj 107 246 f;
#X floatatom 170 245 5 0 0 0 - - -, f 5;
#X floatatom 221 252 5 0 0 0 - - -, f 5;
#X obj 65 180 * 49;
#X obj 467 345 hsl 128 15 0 1 0 0 empty empty empty -2 -8 0 10 -262144
-1 -1 0 1;
#X obj 591 196 vsl 15 128 0 1 0 0 empty empty empty 0 -9 0 10 -262144
-1 -1 0 1;
#X obj 542 388 f;
#X obj 581 388 f;
#X obj 503 254 bng 15 250 50 0 empty empty empty 17 7 0 10 -262144
-1 -1;
#X obj 509 286 t b b;
#X msg 472 433 /x \$1;
#X msg 600 443 /y \$1;
#X obj 472 459 s \$0-input;
#X floatatom 480 482 5 0 0 0 - - -, f 5;
#X floatatom 593 481 5 0 0 0 - - -, f 5;
#X obj 65 201 + 37;
#X obj 241 350 + 1;
#X obj 238 328 * -1;
#X obj 242 377 * 0.3;
#X floatatom 251 433 5 0 0 0 - - -, f 5;
#X obj 241 401 + 0;
#X obj 63 147 t f f;
#X obj 121 217 + 0.88;
#X obj 121 195 * 0.12;
#X obj 32 46 block-tester;
#X connect 1 0 2 0;
#X connect 2 0 8 0;
#X connect 5 0 0 0;
#X connect 5 0 0 1;
#X connect 6 0 5 2;
#X connect 7 0 22 0;
#X connect 8 0 24 0;
#X connect 9 0 0 0;
#X connect 9 0 5 0;
#X connect 9 1 0 1;
#X connect 9 1 5 0;
#X connect 10 0 23 0;
#X connect 11 0 12 0;
#X connect 12 0 10 0;
#X connect 12 0 27 0;
#X connect 13 0 15 0;
#X connect 14 0 11 0;
#X connect 15 0 11 0;
#X connect 15 0 16 0;
#X connect 16 0 17 0;
#X connect 17 0 18 0;
#X connect 17 0 28 0;
#X connect 18 0 23 0;
#X connect 19 0 20 0;
#X connect 19 1 31 0;
#X connect 20 0 21 0;
#X connect 21 0 9 0;
#X connect 22 0 6 0;
#X connect 24 0 52 0;
#X connect 24 1 25 0;
#X connect 24 1 9 1;
#X connect 24 1 48 0;
#X connect 24 3 29 0;
#X connect 25 0 26 0;
#X connect 26 0 32 0;
#X connect 29 0 33 0;
#X connect 30 0 31 1;
#X connect 31 0 21 1;
#X connect 32 0 9 2;
#X connect 33 0 9 3;
#X connect 34 0 46 0;
#X connect 35 0 37 1;
#X connect 36 0 38 1;
#X connect 37 0 44 0;
#X connect 37 0 41 0;
#X connect 38 0 45 0;
#X connect 38 0 42 0;
#X connect 39 0 40 0;
#X connect 40 0 37 0;
#X connect 40 1 38 0;
#X connect 41 0 43 0;
#X connect 42 0 43 0;
#X connect 46 0 19 0;
#X connect 47 0 49 0;
#X connect 48 0 47 0;
#X connect 49 0 51 0;
#X connect 50 0 5 2;
#X connect 51 0 50 0;
#X connect 52 0 34 0;
#X connect 52 1 54 0;
#X connect 53 0 30 0;
#X connect 54 0 53 0;
#X connect 55 0 8 0;
