#N canvas 731 118 835 695 10;
#X declare -path .;
#X obj 431 442 / 100;
#X obj 431 422 random 20;
#X obj 431 463 + 0.4;
#X obj 273 574 outlet~;
#X obj 327 574 outlet~;
#X obj 36 652 declare -path .;
#X obj 28 58 unpack 0 0;
#X obj 433 118 s \$0-rel;
#X obj 446 65 loadbang;
#X obj 42 384 pluck~, f 21;
#X msg 375 146 0.999;
#X obj 375 123 loadbang;
#N canvas 534 124 497 393 pan 0;
#X text 189 156 * ~M_PI/2;
#X obj 116 148 * 1.5708;
#X obj 116 33 inlet;
#X obj 37 35 inlet~;
#X obj 38 324 outlet~;
#X obj 129 328 outlet~;
#X obj 57 180 cos;
#X obj 146 182 sin;
#X msg 167 105 0.5;
#X obj 129 297 *~;
#X obj 38 293 *~;
#X obj 146 266 line~;
#X obj 146 240 pack 0 10;
#X obj 57 269 line~;
#X obj 57 243 pack 0 10;
#X obj 167 81 loadbang;
#X connect 1 0 6 0;
#X connect 1 0 7 0;
#X connect 2 0 1 0;
#X connect 3 0 9 0;
#X connect 3 0 10 0;
#X connect 6 0 14 0;
#X connect 7 0 12 0;
#X connect 8 0 1 0;
#X connect 9 0 5 0;
#X connect 10 0 4 0;
#X connect 11 0 9 1;
#X connect 12 0 11 0;
#X connect 13 0 10 1;
#X connect 14 0 13 0;
#X connect 15 0 8 0;
#X restore 288 546 pd pan;
#X obj 521 60 s \$0-att;
#X floatatom 333 150 5 0 0 0 - - -, f 5;
#X obj 315 104 * 0.99999;
#X obj 317 79 + 0.85;
#X obj 319 53 * 0.15;
#N canvas 509 160 643 326 envelope 0;
#X obj 90 58 r \$0-trigger;
#X obj 212 80 r \$0-att;
#X obj 292 76 r \$0-rel;
#X obj 113 87 t f f;
#X obj 169 131 adsr 1 80 100 95 1000;
#X obj 24 38 inlet~;
#X obj 27 245 outlet~;
#X obj 34 190 *~;
#X obj 83 102 bng 15 250 50 0 empty empty empty 17 7 0 10 -262144 -1
-1;
#X floatatom 91 145 5 0 0 0 - - -, f 5;
#X connect 0 0 3 0;
#X connect 0 0 8 0;
#X connect 1 0 4 2;
#X connect 2 0 4 5;
#X connect 3 0 4 0;
#X connect 3 0 9 0;
#X connect 3 1 4 1;
#X connect 4 0 7 1;
#X connect 5 0 7 0;
#X connect 7 0 6 0;
#X restore 38 435 pd envelope;
#X obj 430 369 sel 0;
#X obj 430 344 r \$0-trigger;
#X msg 446 92 1000;
#X obj 430 393 t b;
#N canvas 426 499 450 300 velocity 0;
#X obj 170 7 inlet;
#X obj 171 39 sel 0;
#X obj 189 80 / 127;
#X obj 305 81 s \$0-index;
#X obj 191 128 * 100;
#X obj 194 155 dbtorms;
#X floatatom 276 153 5 0 0 0 - - -, f 5;
#X floatatom 294 103 5 0 0 0 - - -, f 5;
#N canvas 874 410 450 300 constrain 0;
#X obj 46 22 inlet;
#X obj 48 106 outlet;
#X obj 47 74 + 0.6;
#X obj 47 52 * 0.4;
#X connect 0 0 3 0;
#X connect 2 0 1 0;
#X connect 3 0 2 0;
#X restore 191 104 pd constrain;
#X floatatom 303 181 5 0 0 0 - - -, f 5;
#X obj 174 214 s \$0-trigger;
#X connect 0 0 1 0;
#X connect 1 0 10 0;
#X connect 1 1 2 0;
#X connect 2 0 3 0;
#X connect 2 0 7 0;
#X connect 2 0 8 0;
#X connect 4 0 5 0;
#X connect 4 0 6 0;
#X connect 5 0 9 0;
#X connect 5 0 10 0;
#X connect 8 0 4 0;
#X restore 83 88 pd velocity;
#N canvas 310 290 450 300 trig 0;
#X obj 74 22 r \$0-trigger;
#X obj 73 56 sel 0;
#X obj 73 84 t b;
#X obj 72 118 outlet;
#X connect 0 0 1 0;
#X connect 1 1 2 0;
#X connect 2 0 3 0;
#X restore 36 332 pd trig;
#X obj 59 178 s \$0-pitch;
#X obj 88 309 r \$0-pitch;
#X obj 693 41 r \$0-trigger;
#X obj 693 70 sel 0;
#X obj 628 66 r \$0-bend;
#X obj 627 124 line;
#X obj 627 149 s \$0-bendproc;
#X msg 692 98 0 100;
#X msg 626 96 \$1 5;
#X obj 188 32 inlet bend;
#X obj 188 60 s \$0-bend;
#X obj 28 32 inlet notes;
#X obj 316 27 inlet cutoff;
#X obj 430 28 inlet release;
#X obj 522 33 inlet attack;
#X obj 121 343 r \$0-decay;
#X obj 316 180 s \$0-decay;
#X obj 147 135 r \$0-bendproc;
#X obj 62 133 +;
#X obj 214 382 pluck~, f 21;
#N canvas 310 290 450 300 trig 0;
#X obj 74 22 r \$0-trigger;
#X obj 73 56 sel 0;
#X obj 73 84 t b;
#X obj 72 118 outlet;
#X connect 0 0 1 0;
#X connect 1 1 2 0;
#X connect 2 0 3 0;
#X restore 208 330 pd trig;
#X obj 260 307 r \$0-pitch;
#X obj 293 341 r \$0-decay;
#X obj 265 333 + 3;
#X connect 0 0 2 0;
#X connect 1 0 0 0;
#X connect 2 0 12 1;
#X connect 6 0 43 1;
#X connect 6 1 23 0;
#X connect 8 0 21 0;
#X connect 9 0 18 0;
#X connect 10 0 41 0;
#X connect 11 0 10 0;
#X connect 12 0 3 0;
#X connect 12 1 4 0;
#X connect 15 0 14 0;
#X connect 15 0 41 0;
#X connect 16 0 15 0;
#X connect 17 0 16 0;
#X connect 18 0 12 0;
#X connect 19 1 22 0;
#X connect 20 0 19 0;
#X connect 21 0 7 0;
#X connect 22 0 1 0;
#X connect 24 0 9 0;
#X connect 26 0 9 1;
#X connect 27 0 28 0;
#X connect 28 0 32 0;
#X connect 29 0 33 0;
#X connect 30 0 31 0;
#X connect 32 0 30 0;
#X connect 33 0 30 0;
#X connect 34 0 35 0;
#X connect 36 0 6 0;
#X connect 37 0 17 0;
#X connect 38 0 7 0;
#X connect 39 0 13 0;
#X connect 40 0 9 2;
#X connect 42 0 43 0;
#X connect 43 0 25 0;
#X connect 45 0 44 0;
#X connect 46 0 48 0;
#X connect 47 0 44 2;
#X connect 48 0 44 1;
