#N canvas 175 169 713 713 10;
#X declare -path metaPdLibs/control;
#X declare -path metaPdLibs/fx;
#X declare -path metaPdLibs/instrument;
#X declare -path metaPdLibs/scales;
#X declare -path metaPdLibs;
#X declare -path rj;
#X obj 146 563 dac~;
#X obj 118 43 r \$0-input;
#X obj 118 65 list trim;
#N canvas 634 202 889 476 crystal 0;
#X obj 80 16 loadbang;
#X obj 33 16 inlet~;
#X obj 36 327 outlet~;
#X obj 279 30 inlet;
#X obj 312 116 line~;
#X obj 279 52 t b f;
#X msg 279 94 0 500;
#X obj 336 73 list append 50;
#X obj 279 74 delay 50;
#X obj 34 42 *~;
#X obj 430 29 vsl 15 128 0 1 0 0 empty empty empty 0 -9 0 10 -262144
-1 -1 0 1;
#X obj 81 92 f 12;
#X obj 36 298 *~ 0.5;
#X obj 60 115 pitchshift~;
#X obj 35 232 rlop~ 4720 1;
#X text 277 5 control inlet!;
#X obj 93 146 loadbang;
#X obj 54 264 rev2~ 100 95 14400 60;
#X obj 35 65 *~ 0.8;
#X obj 491 157 vline~;
#X obj 509 179 noise~;
#X obj 490 201 *~;
#X obj 491 94 bng 24 250 50 0 empty empty empty 17 7 0 10 -4034 -1
-1;
#X msg 491 121 0.8 10 \, 0 20 10;
#X msg 93 169 500;
#X msg 126 169 0.3;
#X obj 60 191 feedbackdelay 500;
#X obj 522 31 inlet;
#X obj 523 53 list append 10;
#X connect 0 0 11 0;
#X connect 1 0 9 0;
#X connect 3 0 5 0;
#X connect 4 0 9 1;
#X connect 5 0 8 0;
#X connect 5 1 7 0;
#X connect 6 0 4 0;
#X connect 7 0 4 0;
#X connect 8 0 6 0;
#X connect 9 0 18 0;
#X connect 10 0 7 0;
#X connect 11 0 13 1;
#X connect 12 0 2 0;
#X connect 13 0 26 0;
#X connect 14 0 12 0;
#X connect 14 0 17 0;
#X connect 16 0 24 0;
#X connect 16 0 25 0;
#X connect 17 0 12 0;
#X connect 18 0 13 0;
#X connect 18 0 14 0;
#X connect 19 0 21 0;
#X connect 20 0 21 1;
#X connect 21 0 18 0;
#X connect 22 0 23 0;
#X connect 23 0 19 0;
#X connect 24 0 26 1;
#X connect 25 0 26 2;
#X connect 26 0 14 0;
#X connect 27 0 28 0;
#X connect 28 0 4 0;
#X restore 231 459 pd crystal;
#X obj 316 396 vsl 15 128 0 1 0 0 empty empty empty 0 -9 0 10 -262144
-1 -1 3810 1;
#X obj 339 395 loadbang;
#X obj 116 86 t a a;
#X obj 96 304 stringsynth;
#X obj 59 226 t f b b;
#X floatatom 60 249 5 0 0 0 - - -, f 5;
#X obj 76 272 pack 0 0;
#X msg 341 418 0.3;
#X obj 116 111 route /x /y /z /m;
#X obj 173 196 * 200;
#X obj 170 219 + 50;
#N canvas 1121 167 450 300 mov-proc 0;
#X obj 57 68 moses 0.5;
#X obj 101 97 t b;
#X obj 52 95 t b;
#X obj 66 12 inlet;
#X obj 62 190 outlet;
#X msg 102 131 25;
#X msg 52 132 200;
#X connect 0 0 2 0;
#X connect 0 1 1 0;
#X connect 1 0 5 0;
#X connect 2 0 6 0;
#X connect 3 0 0 0;
#X connect 5 0 4 0;
#X connect 6 0 4 0;
#X restore 221 230 pd mov-proc;
#X obj 142 261 * 127;
#X obj 107 246 f;
#X floatatom 170 245 5 0 0 0 - - -, f 5;
#X floatatom 221 252 5 0 0 0 - - -, f 5;
#X obj 65 180 * 49;
#X obj 65 201 + 37;
#X obj 241 350 + 1;
#X obj 238 328 * -1;
#X obj 242 377 * 0.3;
#X floatatom 251 433 5 0 0 0 - - -, f 5;
#X obj 241 401 + 0;
#X obj 63 147 t f f;
#X obj 121 217 + 0.88;
#X obj 121 195 * 0.12;
#N canvas 668 57 450 300 includes 0;
#X obj 34 16 declare -path metaPdLibs/control;
#X obj 36 36 declare -path metaPdLibs/fx;
#X obj 34 57 declare -path metaPdLibs/instrument;
#X obj 33 79 declare -path metaPdLibs/scales;
#X obj 34 104 declare -path metaPdLibs;
#X obj 39 131 declare -path rj;
#X restore 24 13 pd includes;
#X obj 251 24 tgl 15 0 empty empty empty 17 7 0 10 -262144 -1 -1 1
1;
#X obj 302 159 touch_to_notes 36 25;
#X obj 274 24 touch_tester_auto \$0;
#X obj 277 50 block-tester \$0;
#X connect 1 0 2 0;
#X connect 2 0 6 0;
#X connect 3 0 0 0;
#X connect 3 0 0 1;
#X connect 4 0 3 2;
#X connect 5 0 11 0;
#X connect 6 0 12 0;
#X connect 7 0 0 0;
#X connect 7 0 3 0;
#X connect 7 1 0 1;
#X connect 7 1 3 0;
#X connect 8 0 9 0;
#X connect 8 1 17 0;
#X connect 9 0 10 0;
#X connect 10 0 7 0;
#X connect 11 0 4 0;
#X connect 12 0 27 0;
#X connect 12 1 13 0;
#X connect 12 1 7 1;
#X connect 12 1 23 0;
#X connect 12 3 15 0;
#X connect 13 0 14 0;
#X connect 14 0 18 0;
#X connect 15 0 19 0;
#X connect 16 0 17 1;
#X connect 17 0 10 1;
#X connect 18 0 7 2;
#X connect 19 0 7 3;
#X connect 20 0 21 0;
#X connect 21 0 8 0;
#X connect 22 0 24 0;
#X connect 23 0 22 0;
#X connect 24 0 26 0;
#X connect 25 0 3 2;
#X connect 26 0 25 0;
#X connect 27 0 20 0;
#X connect 27 1 29 0;
#X connect 28 0 16 0;
#X connect 29 0 28 0;
#X connect 31 0 33 0;
