#N canvas 632 580 450 300 10;
#X msg 332 156 /x \$1;
#X obj 332 112 random 1000;
#X obj 332 133 / 1000;
#X obj 148 48 metro 2000;
#X obj 245 118 random 1000;
#X obj 245 139 / 1000;
#X msg 245 162 /y \$1;
#X floatatom 340 205 5 0 0 0 - - -, f 5;
#X floatatom 234 209 5 0 0 0 - - -, f 5;
#X obj 161 120 random 1000;
#X obj 161 141 / 1000;
#X floatatom 154 202 5 0 0 0 - - -, f 5;
#X msg 160 164 /z \$1;
#X obj 187 18 inlet;
#X floatatom 40 205 5 0 0 0 - - -, f 5;
#X obj 41 111 random 2;
#X msg 40 155 /m \$1;
#X obj 144 69 t b b b b;
#X obj 127 24 bng 15 250 50 0 empty empty empty 17 7 0 10 -262144 -1
-1;
#X obj 41 178 s \$1-input;
#X obj 161 188 s \$1-input;
#X obj 241 184 s \$1-input;
#X obj 334 181 s \$1-input;
#X connect 0 0 22 0;
#X connect 1 0 2 0;
#X connect 2 0 0 0;
#X connect 2 0 7 0;
#X connect 3 0 17 0;
#X connect 4 0 5 0;
#X connect 5 0 6 0;
#X connect 5 0 8 0;
#X connect 6 0 21 0;
#X connect 9 0 10 0;
#X connect 10 0 12 0;
#X connect 10 0 11 0;
#X connect 12 0 20 0;
#X connect 13 0 3 0;
#X connect 15 0 16 0;
#X connect 15 0 14 0;
#X connect 16 0 19 0;
#X connect 17 0 15 0;
#X connect 17 1 9 0;
#X connect 17 2 4 0;
#X connect 17 3 1 0;
#X connect 18 0 17 0;
