#N canvas 547 163 957 568 10;
#X declare -path metaPdLibs/control;
#X declare -path metaPdLibs/fx;
#X declare -path metaPdLibs/instrument;
#X declare -path metaPdLibs/scales;
#X declare -path metaPdLibs;
#X declare -path rj;
#X obj 118 43 r \$0-input;
#X obj 118 65 list trim;
#X obj 116 86 t a a;
#X obj 74 295 t f b b;
#X msg 113 316 127;
#X floatatom 75 318 5 0 0 0 - - -, f 5;
#X obj 72 350 pack 0 0;
#X obj 80 248 * 80;
#X obj 80 270 + 20;
#X obj 163 278 * 2000;
#X obj 163 300 + 25;
#X msg 163 322 decay \$1;
#X obj 155 224 t f;
#X obj 78 216 t f;
#N canvas 502 85 1140 735 bass 0;
#X obj 579 23 inlet;
#X obj 19 271 osc~;
#X obj 51 226 *~;
#X obj 69 206 lop~ 1;
#X obj 19 252 +~;
#X obj 19 43 mtof;
#X obj 19 124 / 2;
#X obj 19 672 vcf~ 2;
#X obj 160 406 r \$0-bpm;
#X obj 223 236 r \$0-Wobble;
#X obj 223 276 int;
#X obj 223 296 change -100;
#X obj 160 478 *;
#X obj 223 386 f;
#X msg 383 346 4;
#X obj 223 256 * 5.99;
#X obj 223 316 sel 0 1 2 3 4 5;
#X obj 160 448 / 60;
#X obj 160 427 f;
#X msg 303 346 2;
#X msg 343 346 3;
#X obj 19 104 t f f;
#X obj 19 83 line;
#X obj 19 63 pack f 100;
#X obj 86 22 r \$0-Glide;
#X obj 86 43 * 1000;
#X msg 223 346 1;
#X msg 263 346 1.5;
#X obj 56 468 f;
#X obj 27 406 spigot 1;
#X obj 160 498 change -100;
#X obj 160 519 t f b;
#X msg 128 406 1;
#X msg 96 406 0;
#X obj 27 301 r \$0-tick;
#X obj 27 322 mod 8;
#X obj 27 343 / 2;
#X obj 27 364 int;
#X obj 27 386 * 0.25;
#X obj 69 144 r \$0-Tone;
#N canvas 0 23 568 311 fm-osc 1;
#X obj 20 114 * 0.5;
#X obj 20 144 osc~;
#X obj 70 144 osc~;
#X obj 140 144 osc~;
#X obj 180 144 osc~;
#X obj 140 114 * 1;
#X obj 180 114 * 2;
#X obj 220 144 osc~;
#X obj 290 144 osc~;
#X obj 340 144 osc~;
#X obj 410 144 osc~;
#X obj 480 144 osc~;
#X obj 290 114 * 4;
#X obj 480 114 * 8;
#X obj 70 114 * 1.4983;
#X obj 410 114 * 5.9932;
#X obj 340 114 * 5.0397;
#X obj 220 114 * 2.9966;
#X obj 155 32 inlet;
#X obj 220 267 outlet~;
#X obj 340 174 *~ 1;
#X obj 290 174 *~ 1;
#X obj 140 174 *~ 1;
#X obj 180 174 *~ 1;
#X obj 70 174 *~ 2;
#X obj 20 174 *~ 2;
#X obj 220 174 *~ 1;
#X obj 155 53 t f f f f f f f f f;
#X obj 220 224 *~ 0.1;
#X obj 480 174 *~ 0.2;
#X obj 410 174 *~ 0.2;
#X connect 0 0 1 0;
#X connect 1 0 25 0;
#X connect 2 0 24 0;
#X connect 3 0 22 0;
#X connect 4 0 23 0;
#X connect 5 0 3 0;
#X connect 6 0 4 0;
#X connect 7 0 26 0;
#X connect 8 0 21 0;
#X connect 9 0 20 0;
#X connect 10 0 30 0;
#X connect 11 0 29 0;
#X connect 12 0 8 0;
#X connect 13 0 11 0;
#X connect 14 0 2 0;
#X connect 15 0 10 0;
#X connect 16 0 9 0;
#X connect 17 0 7 0;
#X connect 18 0 27 0;
#X connect 20 0 28 0;
#X connect 21 0 28 0;
#X connect 22 0 28 0;
#X connect 23 0 28 0;
#X connect 24 0 28 0;
#X connect 25 0 28 0;
#X connect 26 0 28 0;
#X connect 27 0 0 0;
#X connect 27 1 14 0;
#X connect 27 2 5 0;
#X connect 27 3 6 0;
#X connect 27 4 17 0;
#X connect 27 5 12 0;
#X connect 27 6 16 0;
#X connect 27 7 15 0;
#X connect 27 8 13 0;
#X connect 28 0 19 0;
#X connect 29 0 28 0;
#X connect 30 0 28 0;
#X restore 51 124 pd fm-osc;
#X obj 223 406 t b b b f;
#X obj 69 165 * 10000;
#X obj 69 186 + 100;
#X obj 19 23 inlet;
#X obj 56 489 phasor~;
#X obj 56 510 *~ 2;
#X obj 56 540 max~ 1;
#X obj 106 541 min~ 1;
#X obj 38 446 sig~ 1;
#X obj 38 567 -~;
#X obj 38 588 *~ 2;
#X obj 38 609 -~ 1;
#X obj 38 630 *~ 490;
#X obj 38 651 +~ 490;
#X obj 27 426 t b b;
#X obj 19 793 outlet~;
#X text 325 775 bass by Joe White 2010;
#X obj 476 214 loadbang;
#X obj 476 256 f;
#X obj 505 256 + 1;
#X obj 476 277 s \$0-tick;
#X obj 476 235 metro 53.57;
#X text 566 235 140 BPM;
#X obj 629 214 loadbang;
#X msg 629 235 140;
#X obj 629 256 s \$0-bpm;
#X msg 145 127 0.5;
#X msg 228 194 0.5;
#X obj 582 55 s \$0-Wobble;
#X obj 440 23 inlet;
#X obj 452 64 s \$0-Tone;
#X obj 370 57 s \$0-Glide;
#X obj 769 52 inlet;
#X obj 25 742 *~;
#X obj 150 634 r \$0-bass;
#X obj 150 655 lop~ 10;
#X obj 770 130 s \$0-bass;
#X obj 740 83 tgl 15 0 empty empty empty 17 7 0 10 -262144 -1 -1 0
1;
#X floatatom 827 75 5 0 0 0 - - -, f 5;
#X obj 970 70 s \$0-env;
#X obj 249 687 vline~;
#X msg 256 642 1 25 \, 0 350 25;
#X obj 360 644 bng 15 250 50 0 empty empty empty 17 7 0 10 -262144
-1 -1;
#X obj 263 586 r \$0-env;
#X obj 970 48 inlet;
#X connect 0 0 69 0;
#X connect 1 0 7 0;
#X connect 2 0 4 1;
#X connect 3 0 2 1;
#X connect 4 0 1 0;
#X connect 5 0 23 0;
#X connect 6 0 4 0;
#X connect 7 0 74 0;
#X connect 8 0 18 0;
#X connect 9 0 15 0;
#X connect 10 0 11 0;
#X connect 11 0 16 0;
#X connect 12 0 30 0;
#X connect 13 0 41 0;
#X connect 14 0 13 0;
#X connect 15 0 10 0;
#X connect 16 0 26 0;
#X connect 16 1 27 0;
#X connect 16 2 19 0;
#X connect 16 3 20 0;
#X connect 16 4 14 0;
#X connect 17 0 12 0;
#X connect 18 0 17 0;
#X connect 19 0 13 0;
#X connect 20 0 13 0;
#X connect 21 0 6 0;
#X connect 21 1 40 0;
#X connect 22 0 21 0;
#X connect 23 0 22 0;
#X connect 24 0 25 0;
#X connect 25 0 23 1;
#X connect 26 0 13 0;
#X connect 27 0 13 0;
#X connect 28 0 45 0;
#X connect 29 0 55 0;
#X connect 30 0 31 0;
#X connect 31 0 28 1;
#X connect 31 1 32 0;
#X connect 32 0 29 1;
#X connect 33 0 29 1;
#X connect 34 0 35 0;
#X connect 35 0 36 0;
#X connect 36 0 37 0;
#X connect 37 0 38 0;
#X connect 38 0 29 0;
#X connect 39 0 42 0;
#X connect 40 0 2 0;
#X connect 41 2 12 0;
#X connect 41 3 12 1;
#X connect 42 0 43 0;
#X connect 43 0 3 0;
#X connect 44 0 5 0;
#X connect 45 0 46 0;
#X connect 46 0 47 0;
#X connect 46 0 48 0;
#X connect 47 0 50 1;
#X connect 48 0 51 0;
#X connect 49 0 50 0;
#X connect 50 0 51 0;
#X connect 51 0 52 0;
#X connect 52 0 53 0;
#X connect 53 0 54 0;
#X connect 54 0 7 1;
#X connect 55 0 33 0;
#X connect 55 1 28 0;
#X connect 58 0 62 0;
#X connect 59 0 60 0;
#X connect 59 0 61 0;
#X connect 60 0 59 1;
#X connect 62 0 59 0;
#X connect 64 0 65 0;
#X connect 65 0 66 0;
#X connect 67 0 42 0;
#X connect 68 0 15 0;
#X connect 70 0 71 0;
#X connect 70 0 72 0;
#X connect 73 0 77 0;
#X connect 73 0 79 0;
#X connect 74 0 56 0;
#X connect 75 0 76 0;
#X connect 78 0 77 0;
#X connect 81 0 74 1;
#X connect 82 0 81 0;
#X connect 82 0 83 0;
#X connect 84 0 82 0;
#X connect 85 0 80 0;
#X restore 223 420 pd bass;
#X obj 185 186 *;
#X obj 219 216 * 0.8;
#X obj 226 241 + 0.2;
#X floatatom 237 273 5 0 0 0 - - -, f 5;
#X obj 116 111 route /x /y /z /m;
#X obj 218 453 *~ 0.6;
#X obj 269 444 *~ 0.05;
#N canvas 562 427 450 300 onoffenv 0;
#X obj 208 216 t a;
#X msg 208 124 1;
#X msg 219 191 0;
#X obj 219 147 t b;
#X obj 189 217 bng 15 250 50 0 empty empty empty 17 7 0 10 -262144
-1 -1;
#X obj 234 217 bng 15 250 50 0 empty empty empty 17 7 0 10 -262144
-1 -1;
#X obj 219 170 delay 800;
#X obj 192 37 inlet;
#X obj 194 264 outlet;
#X connect 0 0 8 0;
#X connect 1 0 0 0;
#X connect 1 0 3 0;
#X connect 1 0 4 0;
#X connect 2 0 0 0;
#X connect 2 0 5 0;
#X connect 3 0 6 0;
#X connect 6 0 2 0;
#X connect 7 0 1 0;
#X restore 368 177 pd onoffenv;
#X obj 242 514 output_stage;
#X obj 106 415 vu 15 120 empty empty -1 -8 0 10 -66577 -1 1 0;
#X obj 151 474 - 100;
#X obj 151 452 env~;
#X obj 330 96 block-tester \$0;
#N canvas 668 57 450 300 includes 0;
#X obj 34 16 declare -path metaPdLibs/control;
#X obj 36 36 declare -path metaPdLibs/fx;
#X obj 34 57 declare -path metaPdLibs/instrument;
#X obj 33 79 declare -path metaPdLibs/scales;
#X obj 34 104 declare -path metaPdLibs;
#X obj 39 131 declare -path rj;
#X restore 24 13 pd includes;
#X obj 269 474 rev2~ 80 85 14400 60;
#X connect 0 0 1 0;
#X connect 1 0 2 0;
#X connect 2 0 22 0;
#X connect 2 0 14 4;
#X connect 2 1 19 0;
#X connect 3 0 5 0;
#X connect 3 1 4 0;
#X connect 4 0 6 1;
#X connect 5 0 6 0;
#X connect 7 0 8 0;
#X connect 8 0 3 0;
#X connect 8 0 14 0;
#X connect 9 0 10 0;
#X connect 10 0 11 0;
#X connect 12 0 9 0;
#X connect 12 0 14 2;
#X connect 13 0 7 0;
#X connect 14 0 20 0;
#X connect 14 0 21 0;
#X connect 15 0 16 0;
#X connect 16 0 17 0;
#X connect 17 0 14 1;
#X connect 17 0 18 0;
#X connect 19 0 13 0;
#X connect 19 0 15 0;
#X connect 19 1 12 0;
#X connect 19 1 15 1;
#X connect 20 0 23 0;
#X connect 20 0 23 1;
#X connect 21 0 29 0;
#X connect 23 0 26 0;
#X connect 25 0 24 0;
#X connect 26 0 25 0;
#X connect 29 0 23 0;
#X connect 29 1 23 1;
